<mxfile host="65bd71144e">
    <diagram id="0wgsq8I03lhOHq7cNLUv" name="Page-1">
        <mxGraphModel dx="2222" dy="1833" grid="1" gridSize="10" guides="1" tooltips="1" connect="1" arrows="1" fold="1" page="1" pageScale="1" pageWidth="850" pageHeight="1100" background="none" math="0" shadow="0">
            <root>
                <mxCell id="0"/>
                <mxCell id="1" parent="0"/>
                <mxCell id="20" style="edgeStyle=none;html=1;exitX=1;exitY=0.5;exitDx=0;exitDy=0;exitPerimeter=0;entryX=0;entryY=0.5;entryDx=0;entryDy=0;strokeWidth=5;fontFamily=Consolas;fontSize=50;fontColor=#FFFFFF;" edge="1" parent="1" source="12" target="3">
                    <mxGeometry relative="1" as="geometry"/>
                </mxCell>
                <mxCell id="12" value="" style="sketch=0;aspect=fixed;pointerEvents=1;shadow=0;dashed=0;html=1;strokeColor=#005700;labelPosition=center;verticalLabelPosition=bottom;verticalAlign=top;align=center;fillColor=#008a00;shape=mxgraph.azure.computer;labelBackgroundColor=none;fontFamily=Consolas;fontSize=50;fontColor=#ffffff;" vertex="1" parent="1">
                    <mxGeometry x="423" y="382.5" width="270" height="243" as="geometry"/>
                </mxCell>
                <mxCell id="3" value="" style="shape=image;verticalLabelPosition=bottom;labelBackgroundColor=default;verticalAlign=top;aspect=fixed;imageAspect=0;image=data:image/png,iVBORw0KGgoAAAANSUhEUgAABVYAAAMACAYAAADPPjzCAAAgAElEQVR4nOzdd5wV1f3/8dfcuzRBEASkClgQG6JgBQNiF7E3NBo1GmuiiaIRvxqjv6hBjSXWiMaCsUWNFcVeUFFQxIIighTpvbd75/fHzO7eXe6Wu7uw7PJ6Ph77uPfOnJk5M3dc4c2ZzwkYdWGIJEmSJEmSJKncEtXdAUmSJEmSJEmqaQxWJUmSJEmSJClHBquSJEmSJEmSlCODVUmSJEmSJEnKUV65W7YeDUvawNLW67E7kiRJkiRJkqpVj3tLXz/qwg3Tj/LqcS88fiLs2CL7+nFz4PRnq7zfpQero6fDuNlw9Czg0ChcNViVJEmSJEmSareSQsiyQtfq8PiJ1DnnZdYM6b9uuDpuTrTu8ROr/LDZSwG0+RyWDotC1R1bQr3tolA1DOCdiTnsfjL0eB6mVk1nczvG5OiLvnFyNfSpLOXsw4j3o3PocS/0eH+D9EySJEmSJEmbqPwcKvN95s/GascWrBnSnzrnvByNTs2XH6pmC1yrQPYRq7fVgwGHw6+BSQvglwZQd1v4bBq0yIM7PoZL96vyzlS9VjDhVRhxIfTMZbvJ0GM0vHActF9ffSvD1LFwCYX/OjB1LIwgx/OQJEmSJEmSclCTRqpmyghX1wzpD7BeQ1UoKVhdsip6nbQgeu3UNHqdtxwO7wy7toLu98LojayeQja/7QUPjYWeXau7J7mZsgC6Ni383L5r9YW8kiRJkiRJ0sYuc+QqrNdQFUoKVjevB/OXR+87ZYR7DerA2jQsXgVX7A8nV+LIU8fCsR8Vfr4zc1TpIjj7CRhbbN2N98Lz8bLj+sGgDmUfZ+uusN298GQHGNCkjH7sDKM6Qo9Xo4/H3hsdh1ehd37/io1mnToWHm8S9aXEc4q3OQ54fsvoGAUmR8crfj49O8Ilr5bQ71yuT3zsy7aE276N1l12WrzP0tZluza9s5xL79KuviRJkiRJ0qapvCM8N7aJoFRu2YPVQbNh8iqY0QFWrYV6cbNWjWDqIvhuNjSqW4nDTo4Cu/xAcOpYOPb5OKyMQ8ODT4OHiwWKgy6EQfH2PUbD6R3KN4pzUD/o8Tb0Kv5o/2Q4dgK8cGG0fMT78OQWMKpf0fB0xM7w/mTo2QFG/AxdgY8WRQHkRxOg04FlnBPATOh0GoyKA00gCkhfLRYq5+sAo06LrsVtZLSpyPWZCZO6RyHoiPfhkjEwID8QLWldtmuzCAYUPxdJkiRJkiStw8B0w8usqUp1lQJY2hom1Y/C05HTYNlqaFgXtmoES1fB0tVw8HYVP+rURcDOhWFi+65w3EcwBWAyjN153dAQ4uAvHllJqxwO2AHu/BkenxwHj5n9mBmNTM13XMfiG8PWTWHCouj9+/Pgt9vBQ5NhQAd4E/hrE5g6ueRzah/3t1exc/pLHJCWWDe1CTx8YRzS3huFq1tX5Pq0ikJWiEbCMjqaOKt9Keso7dpkORdJkiRJkiTVbhtzndUsE1UVqbm6wSavmrMzdACeHAsD4tqkq9bChPnQfQIcUh+WLISlDaq8QyUqMpnTIjj77dy279kNHnoCRvQrtmLnLI+zTy76sX0H4G2Y2gQmbBc9Yv/QmDiA3C4uCZBbd2Am0AomLQTKCCnbd4XLJkSjZk8voU1lr09W5bg2kiRJkiRJ2jRsrKNws4SqwLoTWlVxuJoode2ArtEkVU+OhUe/hLEzYcv6MKMHbP5LxY/avgnwbTTLPUSh4PPxaM/2HaDrt9Fj55kyJ3OaOrmwvmi5NYG/9orqlhbvR/FjZdv2YOAvo+HgDvHnefD4gvhzGeeUVSv463HAq9mPP2JsRli7CN6cCZ22WI/Xp5hyXxtJkiRJkiTVGj3uzf6zMTv92ZKD0zhc5fRnq/yw2UesZhp9YVxXM7ZkBrQeFYWr5VLscfLLToseoX+hV8byVlEtUiB6/L0f9Ihri0JcXzQecdrjI+i6c1TnNFf5Iz/z90t+PzKOlT/p03GvFk5eNagD9NoObpsQPfYPhZ9faFJsX9nOqRSD4jqqb/aChzNOqmeTojftcf0KJ5VaX9eniJKuTWX3K0mSJEmSpI3SxjoitSxl9XvHFuvl3AJGXRhW+V4lSZIkSZIkqRYrvRSAJEmSJEmSJGkdBquSJEmSJEmSlCODVUmSJEmSJEnKkcGqJEmSJEmSJOXIYFWSJEmSJEmScmSwKkmSJEmSJEk5CiAZVncnJEmSJEmSAPr27U1eXl51d0O1RBiGzJs3j2bNmpFIOL5QVWft2rWOWJUkSZIkSZKkXBmsSpIkSZIkSVKODFYlSZIkSZIkKUcGq5IkSZIkSZKUI4NVSZIkSZIkScqRwaokSZIkSZIk5chgVZIkSZIkSZJyZLAqSZIkSZIkSTkyWJUkSZIkSZKkHBmsSpIkSZIkSVKODFYlSZIkSZIkKUcGq5VxRAj/S8PMFKxOwZwUvJOGC0KoW92dkyRJkiRJkrS+GKxW1N/T8Goajg5hGTA6gHnAr0K4Nw3vpaFhdXdSkiRJkiRJ0vpgsFoRe4RwRQiTgN0SsG0S9k1AlyR0TMI7AewbwuXp6u6pJEmSJEmSpPXAYLUiDotfr0vA2KDoumnAWQlYCey1gfslSZIkSZIkaYMwWK2MRiUsnwI0SEK/Ypf3kBBeTMOMuCbrohR8kIZjw8I2d6UhTEVti9s7jNbdmzEStglwSxompmBVCqal4J40tKjkuUmSJEmSJEkqkcFqRbwMpIEb0/D7sHwh5hkhvJGG7iG8EMCtAQwLorD0+TQcGgepQ+MRsCdlCVZPLtZmC+DjFFwewtQA7gxgRADnhTAyBVtV7jQlSZIkSZIkZRdAMkuCpzL9LoR/pqEuEBKVBHifqL7q8ABWFGv/chyqdkvC7IzlR8WjWB8JohICAD+koDmwVRLWxu0CYEoK1gDbJKNlD6SjfgxKwE0ZJQn6hfBKGp4M4FSzc0mSJElSzdG3b2/y8vKquxuqJcIwZN68eTRr1oxEwoxEVWft2rWOWK2wfwWwaxJuC2ACsFsIfwjhf/Gj/peHURiar38C2hQLVQE+ihtljnp9IgHNgAMzMu/9QmgH/CduXxc4PYSfgZuL1Xl9NYBPAjgxLLlcgSRJkiRJkqQK85+AKmM8cHkCLgfaA33CaLTocWFU97R1AJcVy647ALuGsH382jsOT5MZbYYG8FeicgBvxKFpQRmAeH87htAAWA38JaPmar76RN/uziGMDNZdL0mSJEmSJKnCDFarylTg8SD62SmED9PRCNZbgJlEo00fShdOSpUGJhKFntsUG906kWjE6TEhnA+kgBNC+CKA7+M2W8SvnYG/lFLNoWmVnaEkSZIkSZJqmXbt2vGHP/yBzp07M23aNO69916+++676u5WjWApgFzVA6am4OMso0TzfRfA00EUW+8YRq/D0nBQCH8PoHsCGiZh+yRcWsJXMDQoLAfQK4TWwBMZ6evS+PWJAIJkyT+vO1pVkop4PQ1hKvpRzbIw/t4+LeX/wZIkSZJycv3117PbbrvRoEEDtt9+e2644QYaNbK2ZHkYrOZqFbAc2DuMHuUvSbv4dRbQI4RdQhgWwJ8T0cjTlfH6LvE+iuefTwfRRFX9w2i0appoMqp84+L1+4XZxx1/mIbvU7BlricoSZIkSZI2RjvuuCPHHHMMDRs2LFjWpUsXDj/8cLbYYotStpSya9q0KW3bti2yrFGjRnTq1KmaelSzGKxWxO2J6Mq9loYjw6JXsT5wdRgtHxVEo1eXx+taUDRAbQrcGgerdYodYx7RaNN+IRwVwjsBzMhYvxx4NoBOwLXFRu6cGo9ynRFE+5GkfDdnjNY8spR/HNK6Mq/dIzmMmMwfZfmzI2Q3enlEEz8+m4aJKVgW/4xPwTPpqIa6RZQkSVI1OeWUU7jjjju44IILGDx4MO3bt6dPnz7ceuutXHrppTz66KM0b968urupGmbBggX88ssvRZYtXbqUSZMmVVOPahb/elAR9wfQLYDzQng5DfOBCUEUsO4UwmbAdGBAnLh+G0SjVPcKYUQaPgCaA0eHMBeYQ/aRpUMDeDoOPq7L8kj/nxKwbwquCeHgNHxMNDnWsWHUp3MzEt9uIXyZhq8C6GaeLkmV8psQngnhtY2g3MraVDQB4tsBHOTv9wrrAjyZjv5/Wdz2wPZhFLp+EcBvAvhmI/juJUnSJmXvvfcueL/ddtsxZMiQIuvr16/P7rvvzptvvrmhu6Ya7tprr+WSSy4pqLF6zz33sHTp0rI3lMFqhZ2fgOdDOCuEfeOyAGngpwD+B9yWgEVx2xTQPwE3xXVWLwV+Bu4O4NYEPBqPgmkHTMs4xksBLAbqAs9n+QvcLGCvJFydjia6uphooqwnArg2ER1DkrR+/CsNOycLf9er5uoIfJCKniwBmEBUfufnAJYR/aPl0WFUfmePEN4PYe9k1E6SJGk96ty5MytXrqRdu3Z06dKlzPZHHXUUP/zwAw0bNmTmzJksWLBgA/RSNd20adMYOHBgdXejRjJYrYzhQfRTHtOB35QwkuiEEpavBJokS9/vXOCPCfhjGccfE09yJUmqGm2Bf6Tht44SrfH+kS4MVf8W/+Nk8WoPgwO4MIR70tHkkk+loYffvSRJWn8GDBjAmWeeWWTZjBkzePnll/n888+ZPXs2DRo0oG3bthx88MH07duXzp078+CDDwLRI96XXHIJs2bNqo7uS5sE/0YgSVKu8kO3s0M41Fq1NVoDCusNTwKuyRKq5rs3gP/E/6DaPYQD/O4lSdL6kUgkGDBgQJFlw4YN49xzz+W5555jypQprFy5kgULFvDNN99w++23c8kllzB9+vSC9k2bNuWEE07Y0F2XNikGq5Kk3CWIHo1+OQ2TUrAyBbNS8FYafheuOyFfNpsB54bwXhqmpWBVCqan4Pk0HFKOwGob4O9pGJOGBfH2v8TbH7aeA687Asg/xINpaFzJ/QXAKSEMT8P8+Fwmp+DxNOyZ5Vx+ThVOpJX/MMKBYeGy/8XJYM+MZQNLuCYNgRVxmytLaFOf6DsOU9F3nk1l7oml8b5fSkM94Po0/BRfh6E5TBR2fBjVnA3j69euHNu0orBv32d8ryV5NuNJlV4ltKmuezv/Oj4aX7NfxRNxTU/B6hTMTEWf91jP+8iX631dvA+VvR8kSarB0uk0w4cPL/j89ttvc8cdd7BmzZoSt5k4cSJXXnklixYV1qr65JNP1ms/VbM98cQTDBs2LOtP165dq7t7NYLBqiQpN82Bd9JReHdkGNWnrAe0JAr3HkjDmFQUDpVkB+CrVFSntHcYPVZfF2hNNAHfG+ko2CmpYM3AEMal4IoQdgthi3j7NvH2w9JwXzoKdtaHd4NoIkOA9sCtlQh7GgOvpaOJkw4OoSnRuWwN/DqEkWm4qoJB8acB5JfV6lvCPg4No+AU4KgS2uwTRt8xZJ+wqyruCYhC3jfS0aSM2xBdh/JObHtoCP9JR0HzHOCQZNG65SWZR+EI1a4Z51mSkQEMTEQ/2f6esjHc25sBf0tHwe4JYXTsOsBWRJ8/SZc90rqy+6iK+7oy94MkSbXAzJkzAVi8eDF33nlnubaZPXs29913HwBhGPL111+vt/6p5rvyyiu55JJLGDVqFIlEosiPyscrJUkqv/rA+6koMAL4KICzEnBgAk5PFNad3gn4MBWFMMVtBXyUgu2IRgc+HcDJCTg0EdWMnhy3OyOEu7IElueHMDgdhSxTgMsT0DcBvRNwUcbEfeeH0c/6ckXGsc4No8kJc1WHaERn/ijE4QGckoCD4msxnShAuzENp2bsf88ktI5/UvGyD4PCZWfG/3tPUfid7F/CqNGjM/a7TxiFocX1yWhTPFitinsi3wFhtJ+VwFtBNIFUeQZZ9Ayj0Zx1gSXA4Qn4oRzbQTRJ5NtxH9sShbNNSmk/A7g1iH7eKnYtNpZ7u18Ig8IoWP6/BJyUgN8nolAYov0/mC4c7VzV+6jofV1cRe8HSZJquHr16vGb3/yGs846C4A33niDVatWFWlzwgkn8Nxzz/HAAw/QqVOnIus++OAD5s2bRxAEXH/99XTs2HGD9V01y7Rp0xg/fjzPP/98dXelxjJYlSSV39/SUUAGcGcA+yfgkQDeCWBoEAVI18T/a2lDNLKuuH+mC0ed/TYRBS7PxJMB3hHALkkYHYc354ewa7Hg5bp4nzOAHkm4LYhGkH4QRDUw90vC/LjtH9fjY8NLgXMShY+OD0lDoxz3cXXGI9F3xNfv6SAK+u4IovObG7f9R7owGJ0DzIx/8q3OWLYwY3l+ENqQKDjNlCQK0CA6jwTQP0vQ1Sd+/Y7CcDBfVdwT+QKic2+fhIMTcGoC/lrGH1W6hfBqOhphuQo4JlF4/5TXpQHkPzF3XBg9dn5jGnbOMSzfWO7tBsAbAeyYjCbjejaAuwPYLxEF8BCNtO5VyvlVZh8Vva+Lq8j9IElSLXDMMcdw6qmnkpcXPeLy/fffF1nfokULzjnnHBo1akTHjh05//zzi6xPpVKMHz8egD322IN77rmHRo1y/YOqNiWllZhQ6fzTqSSpfDancJTct0E0mi6b/xfAe3HwckwIXTLWtSKqgwlR4PfvLAHYUuB38fIAODEjuEkC5yfg2PhnTpbjzyAK9QC2p/L1T0vzdgD/io/VAbglhyC3HnBpfG4TiB4tL24G8P/i5VtRGILm4vWMuqEHFtu+VwhbEo3yfCY+j6OLtakH7B0vG1bs+6qKeyLTPODERGHoVpYdiB4Vb0I0OvfUROF3n4vvAuiTgPHx5y2JHlP/Jh3Vs70vfpy9tD81bUz39myiUHdZseVp4L6Mfu1WyvlUdB9VeV/nej9IklRLbLbZZkU+L1y4sMjnICj654xsj23Pnz+/4H1eXh4NGjSowh5KymewKkkqn6PCaFQgRGHi2lLa3pkRHh2ZEZoclRFOPVZKAPZlEIVT7wewJqNdCvhfEP2MLGX7eRnvm5bSz6owMOMR7/PC8s8Uf3hY+Mj5w4mSr+dLGee5fwWC1dkUjpLsW2xdfk3V1wN4Km5zUMb3DNEo1/warMXLAFTFPZHp+4yasGVpCQxPFZYuOD8Bz1eiqO6YAHZNRo/cZ5YR6EAUHg9Pw8RUNBFXtsNsTPf2j0HRUcuZJma8b1bK/VTRfVTlfZ3L/SBJUi3y2WefFZmAqlmzZkXWz549m4cffpilS5cyZcoU7r///nX20bx5YWHyESNGMG/evHXaSKq8kqZOkCSpqF0ywo8RZbT9MCM02SOkIInaLmMfX5YSHoVAv3I8Av6bEPYDto3DnGz/V6tE1lYuS4BzE1HwFgAPpaOArvhIv+IyJ9ks7Xr+TLSvhsCOFezja0APopC0IYV9yx+d+mIQPfa9nCgoPTiMlkFhfdUlFP1eoWruiYqoAzyXjiZCguiR+SFV8EWvJnrk/t4k7BVGo2uPCQuveweiibiOD6Kao4sytq0p93ZmebaK/imwtH1syPtakqRa6ttvv+Wss85i0KBB9OjRg5122okPPvigSJtnnnmGZ555Juv2eXl5dO7cGYBrrrmGzz77bL33WdpUOWJVklQ+bTPeTy8j0ZkH5JfpyZzFu1XG+/lUTB5wbxq+SEePHO8VP86+Kj7uPKLJbjakNwN4ML4mnYCby1ESoE1GEPd+GsJU9p90KgqfIJohviLyR5rWoXB04M4hbEs0ovC1AFYQjVyFouUA8uurvhUUfqf5quKeqIg9wqK1PfuHude3LctnAQxKwE7J6OcfcfAMcEgITxf7jmvrvZ2rDXlfS5JUiy1btoyRI0cCcPDBB69THqA0ffv2pWnTpoRhyHfffbe+uigJg1VJUnll5malPfKd3zbbbOFhCe9zcXsaLogfx34zgMMS0CQJjZLQPP55dH0PU83i8gRMjd9fFMKvyjjB+qWvzqqipbE+DwrrVObXWT06/vxBxuPW+Y/SHxk/1l6PwgmvitdXhaq5Jyrjp/i1M1Egub6MAy5LRJNPTYqXHRpGI3vz1eZ7Oxcb8r6WJKmWO+CAAwBo1KgRl19+ebm2adOmDeeddx4Q1WI98MAD11v/JFkKQJJUXpkTyGwVwpxSAp6tKPynu+kZyzPrJTalaL3I8mgNXBinVm8EcHii4iFWVVsMnJOIJlMKgIfT0LWUJDHzWhyfiGqhlmVpBfuWJrpep4WFdVbz66u+mPE9vhKPSm0B7BeHqyXVV4WquScq6sEALk3Ap2nYNYTTQ3g7zD14PCuM+gYwOIiuVUkmAVcl4Km40WFhFIBC7b63c7Eh72tJkmqxZDJJp06dCj737NmTQYMGcfvtt7NixYqs2+y0005cffXVNGpU+ChPy5Yts7aVVDUMViVJ5fNlQEHSsx/wTSlt98tIhL7LCLq+zdhHtxAmlBKC9YknTZpJNLEQQM+MCYKGBhtf8DQ8gIcC+G38mP2NpaR032dciyXAR+t5JOJrcbDaLYzKAOyVJVhdRDTr/KFhFLwujdeNDeCXLPusinuiIsYRTVaVJqp1Oip+rPyeNHyaLDr5VFlOCwtH8T6VjGp/lub7jPdbZbyv7fd2eW3o+1qSpFoqlUpx9913M3DgwIJlvXv3Ztddd+X1119n9OjRzJ49m/r169OuXTsOOugg9t13XxKJwgeTZ86cyZNPPlkd3Zc2GQarkqTyeSOIJvepSzRL+pBSRvddkJEKPZsRrLwVB0YB8OsQ/ltC6NIaeCce+XlrUBg+ZdbRLKkuYwLoVtbJrEd/SsChKWgH/D4sOSB7I75+CeC8jJGP2TQgmjV+dZZ15Q3gMo/3j/hx8zEBTC7W7oU4WD06LAxTXytln5W9JypiccZxvicKWR9PR+Hq02nYJ1H+WqTvBoXB6tlpuLaMKkmZEy3NyHi/Kdzb5VFV97UkSeKtt97ixx9/ZMWKFbRp04Ybb7yRZs2aceqpp3Lqqadm3ebbb7/lb3/7G40bN2bu3LksXeqjISpbZiCfL5ms6jpetZM1ViVJ5TMLeCQOSXYP4aYSErRLQzgoDqqeCwprUkL0/uWMCZJOzZIK5gH/ioOnEHgqI5gZn9Hu3HDdeo71gYfSsHfGfjf0PyEuBs6N//eaoOS6oj9TGL4dH8LlJSSkzYBX0jAiHU2MVdyc+LVtGQnrPGBkfLxD8kerZmn3vzgY60xhndhs9VWhau6JqjA0gIfjfuwWwj9yqLf6QFA42dRVIZxdynXsSNFzzBztuync2+VRVfe1JEkCYPLkycyePZsxY8Ywbty4Mtu/+uqrzJs3j0mTJrFkyZIN0EPVdHl5eey///7rLO/Zsyd5eRvjHzg3Ll4hSdpU7VnOoY5jA5gSvx+YgANSsD1wRQh7pqNH36cQzYp+agjHxPudCVyQ5d/vLk5Ar1QUrDyehsOCaJTkAmAH4A9p2Clue3cAozPCp08D+CqIwrOuIXyTgkcSUcC3fRiNFGxd7HhN84cRbkCvB/DvIKrfWZqLE7BvCtoDt6ThiAAeD6JJmRoRhWi/C6NruxJoFcKkYufyXQCtQ+gC3JWOHr1OEQWYxQ0LYN+MPr2Ypc0s4JMgejQ9CSwEPi7l+lXFPVEVfp+AvdNRmYML4nqr2a5BcXOB/gkYHo94fSgNF8f35Hii696c6LoNCCF/Qt5Hg3Ufc98U7u3yqIr7WpIkrWPEiBHssssuQDQy9frrr2fbbbfluuuuo27duqxYsYKvvvqqmnupmuSRRx6hVatWBMG6fxbr378/Rx55JF988QWDBg2qht7VDAEka2oVL0lSrm5Ow5U5/tq/IAH3Z/yPtg3wUhq6l7KfrwI4OrHuY+b5dgvh5XQUvGQTAv8M4I+JdR8t7wy8k4K2JWz7HVFIlT/y8KRE0UfPX09Hj7oDBDk83pJ57fonoomeStME+Dajn5OBjlmO1xF4IR3V5SzJbOA3iSiwLe6wEIYVu0gjAuiVJcDsHsKouO0UoEMJ5/+nEG6L2z0bRNewNJW9J5bGNVJL6ne+hanouo4Mosf9i9sphM/TUfi5ENi9HDVT83UL4d6waPCcTZro3rwsEQXYxVXnvV2e69gthC/jA/8tgP8r1q4q9gGVu6/Lez9Ikmqtvn17O1KuBNtvvz1dunTh7bffZvny5QB07tyZjh07MnLkSBYtWlTNPdz4hGHIvHnzaNasWdZH3jdl7dq1K/O/tRUrVjBr1qwN1KOaZe3atY5YlSTlaDqwVyKa9OfUMHoEvClRSPJ9PFLz2SCaXb4kXwXQJRnV5Tw2jAKxRvG+3wvgvgA+KyG4HA90TcLl6Wgk5DZEx/ougCfjbQ/KeKS7b1j5mp4VsQj4XQJeLeOx9J+BHvH1PDmEPULYkigYnBhEj+YPCaKRldm8HsDZCbgiHU2YtQz4toS2XwTRqNFWwEulXJMXArgtfv9aOa5dVdwTVeG7AC5KwL/TUZ3Sp9Kwf6J8xx0TQM/43jk+hJ5AmxAaE5V3+DGAD4B/J6LJs0qyKdzb5VHZ+1qSJGX1448/8uOPPxZZNn78eMaPH1/CFlLJpk2bVt1dqPEcsSpJkiRJkjYajlhVVXLEqtaXtWvXOnmVJEmSJEmSJOXKfwKSpE1BmK0YpCTVQLnURpYkSZLWI4NVSdoUGERIkiRJklSlLAVQGUeE8L80zEzB6hTMScE7abgghLrV3TlJkiRJkiRJ64vBakX9PR3N9Hx0GM3APDqAecCvQrg3De+loWF1d1KSJEmSJEnS+mCwWhF7hHBFCJOA3RKwbRL2TUCXJHRMwjsB7BvC5enq7qkkSZIkSZKk9cBgtSIOi1+vS8DYoOi6acBZCVgJ7LWB+yVJkiRJkiRpgzBYrYxGJSyfAjRIQr9il7cpcGsafkrB8hSMS8H/hVCv2PaHhPBiGmbEtVsXpeCDNBwbFm2XX9+1FfBoOqrxuiIFH6fh8GJtJUmSJEmSJFUZg9WKeBlIAzem4fchtCjHNs2Bz1NwWQjTArgvgLkB3JCGxzJKBpwRwhtp6B7CCxDtVbMAACAASURBVAHcGsCwAPYO4fk0HFosMK0PfJiCfUJ4IoCng2jbV9JRyQJJkiRJkiRJVc5gtSK+DuCCBDQA7krDrBSMScOd8WRWDbJsc2MatgWuSkDvBFyWgF8l4LkATgqhbxyCnhjCDGCPJFyYgEEJOCUBJ8Zf1SnFwtImwPgAdk3CpQk4MwHnJqJv9hyDVUmSJEmSJGl9MFitqH/FYeZtAUwAdgvhD2H0eP6MFFweQn751TyiwHQy8PeMmqwhMDiAOcDO8bL+CWiThNnFjvdRvF220bG3BrA64/NrcdttK3OCkiRJkiRJkkqSV90dqNHGA5cn4HKgPdAnhH4hHBfCLWloHUQjU7cGtgCGB1GYmumzAFom1913B2DXELaPX3vHG2ZpyvhiE2gtil/rVvTEJEmSJEmSJJXGEatVZSrweBA9tt8tAfOJRrC2AprGoejicuynHVGN1Z9T8HI6muxq/xBGxuFpkGWbVcU+54e32dpKkiRJkiRJqjSD1VzVA6am4ON0yW2+iyeRygN2DGFpnHBuXsa+84BhaTgojEoGdE9AwyRsH9dPlSRJkiRJkrRRMK3L1SpgObB3GD2iX5J28ess4Kd4m72ytN8CmJ+Cu9PQI4RdQhgWwJ8T8EUAK+N2XeJtHYUqSZIkSZIkVTuD1Yq4PRFdudfScGRY9CrWB64Oo+Wjgmj06lqiEaydgN8XC1cvT0NT4KsgCl8hmqAqM0BtCtwab1dnfZyQJEmSJEmSpFw4eVVF3B9AtwDOC6M6qPOBCUEUsO4UwmbAdGBARuL65wQckIK70tA/gK+AbkSP/b8bwMNxkvpFEI1sHZGGD4DmwNEhzAXmAFtWsM/dQvgyHQW43czTJUmSJEmSpMowYauo8xNwaAKeCmAJUVmAHUP4KYAbAtgpCRMy2s8G9k7CvUEUvv4+hHYhXBdAvwSkiH76J+CxADqEcGkIvUK4O4AeSfggiI7TLmuPJEmSJEmSJG0gASRLKRQqSZIkSZK04fTt25u8PB+wVdUIw5B58+bRrFkzEgnHF6rqrF271lIAkiRJkiRp4zG/0VJW92lI2CCA0LFgqpwwDFm+PI8l9VYZ2KtqBAHBipC67y1zxKokSZIkSdp4NPhNa4JEQLgybbAqaeMTBAT1E4Tp0BGrkiRJkiRp4xEuS0GdhKGqpI1TGBKuTBOuSTt5lSRJkiRJ2oiEGKpK2riFIYQYrEqSJEmSJElSrgxWJUmSJEmSJClHBquSJEmSJEmSlCODVUmSJEmSJEnKkcGqJEmSJEmSJOUor7o7IEmSaq7kwMbR6xVNCpatbjG1urojSZIkSRuMwaokSaqQ5MDGRQLVfHXntAcMWCVJkiTVbpYCkCRJOSspVJUkSZKkTYXBqiRJWi/yR65KkiRJUm1ksCpJknLmaFVJkiRJmzqDVUmSJEmSJEnKkcGqJElaL1KDF1V3FyRJkiRpvTFYlSRJOVvdYmp1d0GSJEmSqpXBqiRJqnKpwYtI3bK4urshSZIkSetNXnV3QJIk1Uz5o1brzmlfsCz/8X9DVUmSJEm1ncGqJEmqlNUtppIc2BgwUJUkSZK06bAUgCRJkiRJkiTlyGA1VzenIUzBr8Ps69sBk1NRm1vTG7RrkiRJkiRJkjYMg9Wq1Ax4IwVbA3cHcLmXV5IkSZIkSaqNTP6qSkPg1TTsBAwJ4A9eWkmSJEmSJKm2Mv2rCnWA59KwTwhDAzgvASVUCpAkSZIkSZJU8xmsVlYAPJaGQ0N4JoAzE1C8tOr/0jAzBa2AR9MwJwUrUvBxGg7PksC2BO5Ow5QUrE7BtBQ8kIY2GW0+T8PKFNQvtu2ouAbsAcX2+494+TaVPWFJkiRJkiRJBquVdVcaTgnhxQBOS0CqhHb1gQ9T0ajWJwJ4OoDuIbyShj0yQtCtgS9ScFEIPwbwzwC+DeB3IYzKCEaHAfWI9pevMdAt/tyr2PEPBsYBEyt7wpIkSZIkSZLyqrsDNdpf0nBxHGTeG8DaUto2AUYEcGwCVsfL3gmjEaznhHBhEC27Jw1tgQsScH9QuP25IfwrDQ+m4cAEvBbANSH0CeG9uF2vEJLAsvg98fLWwC4h3JqxP0mSJEmSVOt9c8fHbLNVBy7810Aeefc/Wds0qt+QAfsfzyk9j2ObrTrQtFFT5iyey6fjR/HA8Ef4aNyn62yTl8xj8dDJAKTSKTpfvCczFswqsz87tNmOL297H4BVa1bT9IxOWfdZ3JrUWuYtmc/nE75gyFtDefOrd8s8VqamjbbgwkPP5ojuB7Ndq22om1eXmQtn8dG4kTz09uN8On5UTvuTwBGrFXd2CNeF8GkcVg5JQ9Mytrk1KAxVIQpHAbaNP28J9AthZFA0VAV4MIiO1TeEjsBnAcwFDsho0yeEefF+94lDVoCD4vD3VYNVSZIkSZJUaMd2nfn05je58+yb2HeHPWlQtwELli6gbbPWHL9Pf4Zf+xw3nnZNqftIJpKcecCAch3v7AN/Xa520+fPZOKsyQU/cxbNpdUWLenf4zBe/PNQ7vrtzQRB+XKO3Tt15ctb3+PqEy5j905dCYKABcsWsnXzdpz2qxN4+7r/MfiM68q1LymTwWpFHRDC8AB6J6LQsz1wf/HiqsWML/Yf/KL4tW782jWMBpl+WML2H8Wvu4VRHdc3Atg7LKyz2hv4IIAxQVQWYNc4UD04jI71kcGqJEmSJEmKtGjcnOHXPsc2W3Xg0/Gj2P//+tHqt13odMHubHX2Dtzw7C2sSa3l0iPP54JDzy51X2cecCqJoPSYqX6devz6VyeWq29n3HUBu1y6X8HPdhd1p/Vvd+TWF+8mHaY556DTufjwc8rcz+YNGvHcFY/SskkLPhz3CXtdeRAtz+rMNhfsTvMzt2PgY39h5ZpVXHz4uVx65Pnl6puUz2C1oj4N4Lj4sf7LEvAzcFIIZ2aZjCrfqmKf85vm552N49fFJQSg0+PlDePPrwVRndX9QmhEVKv1vaAwgM2vs3pQGIWwpZUqkCRJkiRJm5TbzryBLTdvxpeTxtLvbycz+qcxBeuWrFjKTc/fwV+f/jsA1540kPp16mXdz4wFs2jfvC2HdDsg6/p8x+59JE0bbcEv82dUqL+Lli/m2qdu4oHhjwBw+dEXlzlq9ag9D6PVFi1ZsmIpJ95yFt9MGVewbsXqldwzbAiDnrgBgIFH/54GdYvPEi6VzGC1ou4JolqmAEuAsxNRUPrPdOGj/blaEr+2KSGcbRovnxd/fiOIRq4eEELPMKqY+x7wSdy3/cNo1GprLAMgSZIkSZIKNGvUlGP2OgKAPz9+PStWr8za7l9vPsrKNatosllj+u76q6xtnvzoOQDOOej0Uo/524OiMgBPfPBsRbsNwINvPgZEI247ty49hNm6eTsAJs76mcUrlmRt8+zHLwJRHdYubTszoNfxLH/yF96/4ZV12jbZrDGLhk5m/mMT2axeg3XWf3rzcJY/+QvH7NWvyPLNGzTiimP+wOhb3mHeoz8x7cFveG7go/TssneJfc9lm/w+P/aH+9hmqw48dNFd/Hz/GBY+/jNf3z6Ca04caGi8HhisVpV3A7g7iEaOPpGu2LRgY4MonN2PwlGsmfJ/f42LV84jqrV6GFHt1fnA1wGsISoJ0DeEY4nC12EGq5IkSZIkKXLY7geSl8xjzuK5fDjukxLbLV25jEfffZK3xr5XYjD31EfPsza1lkO79aVts9ZZ2+zYrjP77bAXS1cu43+fvVapvk+ZO63gfdNGW5Sr7Q5tt6djy62ztpm/dAHdBx5AjysO5McZP/Hm2PcIw5DdO+3K5g0aFWl7aLe+1EnmUb9OPQ7ctXeRdU02a8wuW+/I2tRa3vnmg4Ll7bZsw3vXv8R1J19Jp6068vPsyQQEHL7HQbxx7X85o8/J6/SpItsAdOu0KyNufJ2Tex7L6rVrWLl6Jdu26shVx13KK4OeKnHUsSrGYLUq/TkBE4jqnv6ljHqr2cwFXg+iWqsXFxu1emYIvcOoTuqUjOWvBdA9hBPDKEzN3+ytAJoDl6aj8HVOhc5IkiRJkiTVQp3ikPGbKd+X2faP/76ao246jec+fTnr+oXLFvHK6DeiSaz6npq1zW/jSaueHvE8q9euqWCvIx1atC94P3/pglLbvvT560yfP5P6derx+jXPctw+R5KXXHc03Lhp4/lu6vcsXbmMuYvn8eWkseQl8+i14z5F2h3R/eCC9/26H1JkXc8ue5MIEoz8cTSLl0ejYxNBgkd/fy87ttuBJz96jo7n7Ub3gX1p97td+OO/ryYRJLjj7JsKRtZWdJt827XqxCc/fM72F/Wg88V70uacnTjv/j+yJrWWfXfYk8uOuqjU66XcGKxWpeXAmYlohOhVIfQqpd5qSS5KwEzgrjS8lYbb0vB6Gv6dhlnAb4t9Za8RjW7tRFRfNd9b8WtTCssAdAshTMGYCoS+kiRJkiSp1mjZpAUQhaKVVb9OPYa89TgAZx4wgGQiWWR9g7r1OS2etOrBNx+nXl7ddfaRi/MOOROAOYvn8uOMiaW2XbJiKccOPp2pc39h6+btGHrJA0y89wvuP+8f9Ot+SImjcN8Y8y4AvXfqWbAsL5nHod368sP0CSxctojD9ziwyIRd+++0LwDD420hCl/33WFPvp36Peff/6eCcgRhGPLA8Ed47tOXqV+nHqdnjECtyDb5ps+fyam3n8uMBbMASIdpHn//Ge569QEAfnfIb9b5flRxBqtVbUQA/wggCQxNQ5Mct58EdE/CAwF0iUeudgmjMgPdkjC+WPsvgiiIhai+ar6vA5gdv3+1AuchSZIkSZJqrTp5dQBIpVOV3le9OvV495uPmDBzEm2bteaw3Q8ssv74ffrTZLPGfD7hS8ZO/pZ6dXIPVhvUrc/O7bvwz3Nu5tyDzgDg1hfvJgzLHtT29eTv6D7wAK5/ZjAzFsyieeMtOaPPyTx7+b+ZdN8YbhgwiMYNNi+yzfAx7wDQZ5fCYLVXl71pslljXvp8GMO+fIsWjZuz53a7F6zfPx7d+ka8LcDx+/YH4OkRL7Amte6s4m+PfR+AvbfvXqlt8s1bMp+Va4rPng53DxsCRHVpd2i7/TrrVTEVqQS6aftzAv5cRpuBCRiY8fmYEvLrtUCQ5V8JpgPnlzPzDoHWWfYRAlsVWz4myH48SZIkSZK0SVkbB3ZVMXqxft36hGHIw28P5cbTruGcg07n1dHDC9b/Np7Uashb0aRT5anz+dZ1L5S6/p5hQwrCwvJYunIZN79wJ7e8eDf77bAXR/Y4lGP2OoL2zdty2VEXcdw+R3Lk3wYwafZkAEb9NIYFSxey69Y70bTRFixYurCgDMCro4fTpmlrBvQ6nn7dD2Hkj6PZvEEjduu4C7MWzubrKd8VHHfHtp0BuP6Uq7j+lKtK7N9W8Qjiim5TllkLZzN/6QKaNWpKxxbt+W5q2SUgVDaDVUmSJEmSpE3MgmULgWjCpcqqG49+fey9p/nLSVdy8G59aN+8LVPn/sLO7buw9/bdWbhsEf/95CUA8pJ1ytzn1Lm/sGL1yoLPa1NrmLd0AV/9/A1Pfvg8X04aW6G+ptIpPhz3CR+O+4Q/D/0rR3Y/lDvOvpFOLTsw9NL76Tno8IJ2b3/9ASfsexS9d+rJ/z57lSP2OITZi+bw+YQv2azu96xcs4p+3Q/m2qduYp/Oe5JMJBn+1XtFRtE2b7wlAD9Mn1BQdzWbyXOmVmqb8pi1cA7NGjWlUf2GOW2nkhmsSpIkSZIkbWLGT58AwM7tdyiz7fWnXEXHllvz9IgXioxEzRcQze0yf+kCXhj5Cqf0Oo6z+p7G9c8M5px4tOoTHzxbEJQGQbDOPoo76+6L+fiHz8p9PtkkggS7bL0jABNmTmT5qhVF1odhyMujXmfWotm8d/3L7N6pK7t13IWvfv4GgDe/ejcKVnfejx+mT2CbrTrwyLtPEoYhy1Yt552vP+CIPQ6mU8sOBWUA3vzq3SLHyD/nO16+j0ffe6pc/a7INuWxeYNGACxbtbzK9rmps8aqJEmSJEnSJub9bz8mHabZaouW7LvDniW2a1S/IRcfcS4n7HsU6bDsybDzJ7H6TZ9TaNxgcwb0Or7I8g0pJOSdv77IpzcPZ/8d9y2x3ecTvmTVmtUAbN28XcHy/NGnvXfuSb+MMgD5Xv78dSCabGr/nfYllU7xVlz/NN/EWT8D0K3TruXud0W2KcsWDZvQtllrACbNnlJl+93UGaxKkiRJkiRtYqbNm85ro98E4G+n/h91ktkfaj6r76nUr1OPBUsX8s7XH5S5349/+Izvpn5P66ZbMeTCO2m82eZ8OO4TfohHyG5IYRjy0bhPADj7wNNKbNelbeeCCbWmL5hZsHzWwtmMnfwtXdpuz+m9T2bF6pVFrsEro4eTSqc4cb+j2WOb3fh8wpcsXLaoyL6HffEWAKf3Ppk2zVplPX6PbbtVept8TRo2Ji/Ld3l675MIgoBZC2fzwy8/Zt1WuTNYlSRJkiRJ2gRd/ui1LF6+hH069+C5Kx5lu1adCtY1qt+QP/a/gBsGXA3AtU/dVDCqsyxD3h4KwJE9Do0+V8No1Xx/feYWVq5ZRf8eh/HUn4awU/suRdb/aqd9+c8f/wXAN1PG8cXEr4qsHx4/2r99621495sPi9R9nbdkPp/88Dl7brc7dZJ565QBAHjsvaeYPGcqm9VrwDOXPUynlh0K1m3RsAn3nXcbH/y/VznzgFMrtU2+rZu3477f3Vbw2D/AYbsfyF9OuhKA+974N6l0quwLp3KxxqokSZIkSdImaMrcafS/aQDPDXyUg7r2YeztHzFz4WwgmnE+CALCMOTmF+7koTgsLY//fPhfbhgwiIb1NmPO4rm8+Nlr6+sUyvTlpLGcdOtZDLnwTo7a83CO2vNwlq1aztzF82jZpAUN6tYHYOKsyQy4/ZwiE08BDB/zLgOP/j0Ar4xat77sy6Nep1dcX/WNMesGq8tWLeeEW87kpav+wx7b7MbXd3zEuGnjSafTdG6zHfXq1GXMpK95YeQrldom38Jlizhm7yM4du9+jJ8+gSYNGxcEsx+N+5Q7X72/gldS2ThiVZIkSZIkaRP1+YQv6fqn/bnp+Tv4Zso4GtVvSNOGWzBl7jT+8+F/6XNtf65/ZnBO+1y8fAnPfvwiAI+99zSr165ZH10vt7fGvk/XP+3PVUOvZ8T3I1mxagVtm7Vm1ZpVjPh+JFc+fh17XXkgP838eZ1tR/44msXLlxCGIcO+fGud9S/FdVbnLp7Hl5PGZj3+t1O/Z88rDuSWF//J+Ok/sW2rTnRo2Z5vp47jz0P/Sp9r+7No+eJKbwMwde4v7H/1Ebwy+g3abtmadlu2ZdLsydz0/B0cffNp5R51rPIJIBmW3UySJKlkyYGNAUjdsu4f7iRJknJR//iWBHXKnjVeUqEBvY7noYvu4uvJ37H3nw+u7u5sEsI1oSNWJUmSJEmSJClXBquSJEmSJEmSlCODVUmSJEmSJEnKkcGqJEmSJEmSJOXIyaskSVKlOXmVJEmqKk5eJakmcPIqSZIkSZIkSaoAg1VJkiRJkiRJypHBqiRJkiRJkiTlyGBVkiRJkiRJknJksCpJkiRJkiRJOTJYlSRJkiRJkqQcGaxKkiRJkiRJUo4MViVJkiRJkiQpRwarkiRJkiRJkpQjg1VJkiRJkiRJypHBqiRJkiRJkiTlyGBVkiRJkiRJknJksCpJkiRJkiRJOTJYlSRJkiRJkqQcGaxKkiRJkiRJUo4MViVpI5Mc2Ji6c9oX/CQHNq7uLklSreHvWEmSJFUVg1VJ2ogkBzYmeUWTosuuaELdOe2rqUeSVHv4O1aSJElVyWBVkjYS2f7Cn8m/+EtSxfk7VpJqkLC6OyBJ5RBCXnX3QZJU9l/4JUkV5+9YSapZgnoBdfffkqBBwpBV0sYngHBFmtUfzjNYlaSaJDmwMalbFld3NySpVvJ3rCRtJOomWPP5QsKVaQhNViVtZIKAoH4C6iYMViVJkiRJ0sYjXJaCOglDVUkbpzAkXJkmXJO2xqokbQwcISVJ64+/YyWphgkxVJW0cQtDCJ28SpJqjNTgRYYDkrSe+DtWkiRJuTJYlaSNxOoWU6u7C5JUa/k7VpIkSVXNYFWSNiLZ/uKfGrwoenUklSRVWHJg44Lfp5lSgxc5WlWSJEkV4uRVkrSRyRqu3rKYunPaO+JKkiooeUUTUoMX+XtUkiRJVcYRq5JUQ6xuMZW6c9pXdzckqcbJH63qqFRJkiRVJYNVSaphkgMbV3cXJKnGyP+daagqSZKkqmYpAEmqQfJHrRoQSFLZkgMbk7yiiY//S5Ikab1wxKok1TCWBJCk8smvqypJkiStDwarklQDpQYvMlyVpFJYV1WSJEnrm8GqJNVABgWSVDLrqkqSJGlDsMaqJNVQ+SUBrB0oSYWsqypJkqQNxRGrklSDWW9VktZlXVVJkiRtCAarklQLGK5KkiUAJEmStGEZrEpSDefjrpJkqCpJkqQNz2BVkmoBSwJI2tQlr2hS3V2QJEnSJsZgVZJqCcNVSZuq5MDGpAYvcrSqJEmSNiiDVUmqZfIfh5WkTYElACRJklRd8qq7A5KkqpM/atWAQdKmIDmwMckrmlhrWpIkSdXCEauSVMtYEkDSpiQ1eFF1d0GSJEmbKINVSaqFUoMXGa5KqtUsASBJkqTqZrAqSbWQQYOk2sxQVZIkSRsDg1VJqqUsCSCpNsqvqypJkiRVN4NVSarFDFcl1UapwYscrSpJkqRql1fdHZAkrX/JgY0NISTVeJYAkCSpYk7a7xge+f09LFu1nE7nd2PpymUltq1fpx7zH5u4zvIwDFm6chmTZk/mna8/5L43Hmbq3F+KtMlL5rF46OSs+12TWsu8JfP5fMIXDHlrKG9+9W5O59C00RZceOjZHNH9YLZrtQ118+oyc+EsPho3kofefpxPx4/KaX9SVQggGVZ3JyRJ61fdOe1Z3WJqdXdDtZiBl9Y37zFJ2nTUP74lQZ2gurtRq7x69dMcsEsvAC781+U88u6TJbbNDFanz5/JyjWrAAgCaN20FfXr1ANg6cplnHbHeUUC0sxgNXPb/P22adaq4POQtx7nkoevIgzLjqV279SVF658jJZNWhQce+nKZWzVpAVBEBCGIfe8PoQrHruuXNdDqgrhmtARq5K0KcgvCWC4KqmmSl7RhNTgRdXdDUmSapytm7ejz849WZNaS51kHmf0OaXUYDXTGXddwMc/fFbwOQgCemzbjdvP+ht7bLMbj//hPna+dD/mLZlf5rYATTZrzGVHXcSfjrqQcw46nR9n/MQ/X3uw1D5s3qARz13xKC2btODDcZ9w2SPX8M2UcQA0qFufsw/8NdefchUXH34u0+fP5I5X7i/XuUlVwRqrkrSJSA1eZL1VSTVScmBj66pKklRBp/c5mSAIePjtocxaOJt9OvdghzbbVWhfYRjy+YQvOW7wb1i8YgmNN9uc4/Y5stzbL1q+mGufuokHhj8CwOVHX0wQlD46+ag9D6PVFi1ZsmIpJ95yVkGoCrBi9UruGTaEQU/cAMDAo39Pg7r1K3BmUsUYrErSJiI/kMh/nFaSagJLAEiSVHFBEHB675MAePKj5/jvJy8BcEafUyq139mL5vDFxLEAFQppH3zzMQBaNG5O59bbltp26+btAJg462cWr1iStc2zH78IRHVYu7TtzIBex7P8yV94/4ZX1mnbZLPGLBo6mfmPTWSzeg3WWf/pzcNZ/uQvHLNXvyLLN2/QiCuO+QOjb3mHeY/+xLQHv+G5gY/Ss8veJfY9l23y+/zYH+5jm6068NBFd/Hz/WNY+PjPfH37CK45caCh8UbIYFWSNiGrW0wleUWT6u6GJJVLcmDjqASAoaokSRVywC692Lp5OybNnsxnP37BUyNeAODU/Y8nL1m56pB18+oAsHzVipy3nTJ3WsH7po22KFfbHdpuT8eWW2dtM3/pAroPPIAeVxzIjzN+4s2x7xGGIbt32pXNGzQq0vbQbn2pk8yjfp16HLhr7yLrmmzWmF223pG1qbW8880HBcvbbdmG965/ietOvpJOW3Xk59mTCQg4fI+DeOPa/3JGn5PX6VNFtgHo1mlX/j97dx4eVXm3cfyeTFYICVsCsgooiwuCgECFioooIrhEK1hRtCpVsYqauL2lFWuxUetetaIFS2VRQHBBARVlUxFBUNnBGPawTYAASSbn/QPOMElmksksmTMz3891cV0wc86ZZ0JYcud37mfx3z/R9edfreLSEh0tPqp2TU/VI9fcpw8fneLquIU1EKwCQIwx+1YBIBLQqwoAgP/MydRpi49PdC7ftFIbd25Rk/qZuqzrxX5ft1OLDurWtosk6btNK2t8fuuMk1+P7Du0v8pjZy/7RNv37VRyQpI++fO7uqbXFR5D4TVb1+vn/LU6dPSw9hTu1YotqxRvj1efTr3KHXd5t0tcPx/UbUC5587v2FNxtjh9s2G5CouOT8fG2eI08Z5/qVOLDpq8aLpOHXmOumVfpBZ3nKXR/3lMcbY4PX/rONdkrb/nmE5r2kZL1y3T6Xd3V/tRPdTstjM08rXRKnGWqneHHnpgyN1VfrxQuwhWASAG0bcKwOqoAAAAIDDpddI0pMdASdK0JTNdj09b/L4k6eYa1gHYbDY1a9hUN/72Os1+5H9KSkjUyi2r9eF3n9Z4bSMHjJAkFRTu0YYdm6s89uCRQ7o6d7jy92xTq8YtNOne17X5X9/rtZH/1KBuA7zeHv/pyi8kSReccb7rsXh7vC7tcpHWbd+oA4cdGnjuxYqznYzG+p7RW5I098S50vHwtXeHHvopf63++Nr9rjoCwzD0+twJmv71B0pOSNJwtwlUf84xbd+3Uzc8d7t27N8lSSozyvTfL6fpxY9elyTdMeBm2ePsVX7MUHsIVgEgBhFUALAyQlUAAAJ3/flXKzkhDa34cwAAIABJREFUSavzftaaretdj09dPEPS8VviM9MzqrzG/L/OVNHkbSqavE2H39mqja8s17/vfF7NG56ixWu/0eBxN6jMKPNpPSmJyTqzZUe9dNtTur3/TZKkZ2a9LMMwqj13dd7P6pZ9ocZOy9WO/bvUOK2Rbup3vd598D/a8upKPTHsUaWl1Ct3ztyVn0uS+p11Mljt07Gn0uukafayOZqzYr4y0hqrx2ldXc/3PTHd+umJcyUpq/dgSdLUxTNV4iyttLbPVn0pSep5ereAzjHtPbhPR0uOVXr85TnjJR3vpe3Q/PRKzyM8AivUAABELLMSoDgjP9xLAQAXV68qFQAAAARkxIXDJB0P99xt2LFZK7asUtc2nXXjb6/TPz/4l9dr5O/ZpiPFR12/btGomeokpejf8ybqvrcerfL15/91ZpXPvzJnvCss9MWho4f11MwX9PSsl/WbDufpiu6X6qrzLlfLxs31wJC7dU2vK3TFk8O0ZXeepOMVBfsPHdDZrc5Qg9T62n/ogKsG4KPlc9WswSka1idLg7oN0DcblqteSqrOOfUs7TqwW6t//dn1up2at5ckjR36iMYOfcTr+pq4hdT+nFOdXQd2a9+h/WqY2kCnZrTUz/lrfT4XoUOwCgAxjHAVgBU5cx1MqwIAEICzWnVSlzZnyzAMTVvyfqXnpyyaoa5tOmt4v+urDFZveXmUlqz71vXrOy+9Vc+OeEJX9hioR//3RJUbV1UMZUudJdp7aL9++OVHTV44Qyu2rPLrvTnLnFq4ZqkWrlmqhyc9riu6Xarnb/272mS21qT7XtP5jw50HffZ6q90be8huuCM8/X+tx/p8nMHaLejQMs2rlCdxLU6WnJMg7pdojFTxqlX+x6yx9k194cF5aZoG6c1kiSt277R1bvqSV7Bya+p/DnHF7sOFKhhagOlJtet0XkIHYJVAIDs2WmEGADCjgoAAACCw5xWtdlsWv/yMq/HdWh2mnq1766v13/n03Xf+nySRg++Uy0aNdM9l9+uf8x80euxFUNZf8TZ4nRWq06SpI07N1cKcg3D0AfffaJdjt1aMPYDdW3TWeecepZ++OVHSdK8H744Hqye+Rut275RbZu01oQvJsswDB0+VqTPV3+ly8+9RG0yW7tqAOb98EW51zDD4ec/eFUTF0zxad3+nOOLeimpkqTDx4qCdk0Eho5VAIhxxRn5suekh3sZAGIcoSoAAMGRGJ+goX2ukXR8I6TNu/I8/jAnKW8+EcL64lhJsf4+/TlJ0ujBd6lhaoPgvwE3hgx9/vgsff3UXPXt1Nvrccs2rtCxkmJJUqvGLVyPm9OnF5x5vga51QCYPlj2iaTjm031PaO3nGVOzT/Rf2ravOsXSVKXNmf7vG5/zqlO/brpat7wFEnSlt2/Bu26CAzBKgDAVQkAAOHCN3gAAAiOK7pfqoapDXTo6GF1eeC3Ouu+33j8cc+bD0mSsnoNVt2kOj5ff9JX07Rp5y9KS6mnh66+N1RvQ9LxidRFa5ZKkm69+Pdej+vYvL2SEhIlSdv373Q9vuvAbq3K+0kdm5+u4RdcryPFR/X56q9cz3+4fK6cZU5d95srdW7bc7Rs4wodOFy+533O9/MlScMvuF7NGjb1+Prd23UJ+BxTet00xdsr32A+/ILfyWazadeB3Vq3bYPHc1H7CFYBAJKOdxoSrgIIB3t2Gr2qAAAEyc39hkqSZnz9oQ4dPez1uNnL5mjfof1KTa7r2sXeF6XOUj05/VlJ0h2X3KyWjZsHtuBqPD7taR0tOabB3S/TlPvH64yWHcs9/9szeuud0f+WJP346xp9v/mHcs/PPXFr/+mntNUXPy4s1/u69+A+LV23TD1O66oEe3ylGgBJenvBFOUV5KtOUoqmPfCW2mS2dj1Xv266Xh35rL7620caceENAZ1jatW4hV6941nXbf+SdFnXi/WX3x0Pwl/99D9yljklHa9K+NOgO3T/4LuU4BbG1vRx+I+PIgBA0vHbb+056fStAqhVVAAAABA8zRo21cWdL5AkTVwwucpjj5UU652F72nUwNt1c79henvBVJ9fZ9ri95V95Sh1atFBf74uW3e8el9A667Kii2r9LtnbtH4u17QkB4DNaTHQB0+VqQ9hXuVmZ6hlMRkSdLmXXka9txt5TaekqS5K79Q9pX3SJI+/G5upet/8N0n6nOiX/XTlZWD1cPHinTt0yM0+5F3dG7bc7T6+UVas3W9ysrK1L7ZaUpKSNTKLas185sPAzrHdOCwQ1f1vFxX9xyk9ds3Kr1umiuYXbTma73w0WuuY/ue0UtP3fgX1/t//9uP/Hoc/mNiFQDgQt8qgNpkz06TPSedUBUAgCAZfsHvFGeL0/rtm7R0nfdNq0z/+fwdSVLvDj3Uvlk7n1+nzCjT2HefkSTd0DdLnVp08G/BPpq/6kt1vr+vHpk0VovXfqMjx46oecNTdKzkmBav/UYP/fevOu+hi7Vp5y+Vzv1mw3IVFh2UYRias2J+pednn+hZ3VO4Vyu2rPL4+j/lr1WPnIv19KyXtH77JrVr2katM1vqp/w1enjS4+o3ZrAcRYUBnyNJ+Xu2qe9jl+vD5Z+qeaNT1KJRc23ZnadxM57XlU/93tUlK0nrt29SXkG+tu3bodW//uT34/CfTbIb1R8GAIgliQUtVZyRH+5lIIIwdQh/8HkDAPAkOStTtgRbuJcB1KphfbL05t0vanXez+r58CXhXg58YJQYTKwCACqjbxVAqBGqAgAAINIRrAIAKiHoABBKhKoAAACIBgSrAACPijPymVoFEHRmryoAAAAQ6QhWAQBeEa4CCAVnroNpVQAAAEQ8Nq8CAFQpsaAlIQiqxa3d8AWfJwAAX7B5FYBIwOZVAIBqFWfkc9sugIARqgIAACDaEKwCAKpFJQCAQPENGgAAAEQbglUAgE+cuQ7CVQB+sWenUSkCAACAqEOwCgDwiRmImLfzAoAvqAAAAABAtIoP9wIAAJHDrAQgIAHgC3t2muw56SrOyA/3UgAAAICgY2IVAFAj9K0CqAlnriPcSwAAAABCgmAVAFBj9K0CqA4VAAAAAIh2BKsAgBojKAFQFUJVAAAAxAKCVQCAX6gEAOCJ2asKAAAARDuCVQCA3whXAXjizHUwrQoAAICoR7AKAAiYedsvgNhGBQAAAABiCcEqACAgxRn53PYLgFAVAAAAMYdgFQAQMCoBAPANFgAAAMQaglUAQFA4cx2Eq0CMsmen0asKAACAmEOwCgAICjNQoW8ViC1UAAAAACBWxYd7AQCA6GFWAhCwALHBnp0me066ijPyw70UAAAAoNYxsQoACCr6VoHY4sx1hHsJAAAAQFgQrAIAgo6+VSD6UQEAAAgZI9wLAAAfGFQBAABCwPl0ITuEA1GMUBUAEEq2JJsS+zaSLSWOkBWA9dgk40iZihfuJVgFAISGWQlA9yIQXcxeVSoAAAAhkxinkmUHZBwtkwySVQAWY7PJlhwnJcZRBQAACB36VoHo5Mx1MK0KAAgZ47CTUBWAdRmGjKNlMg47CVYBAKFn3jYMILJRAQAAqBWGCFUBWJthSAabVwEAQqw4I5++VSAKEKoCAAAA5RGsAgBCjkoAIPLxDRIAAACgPIJVAECtcOY6CFeBCGXPTqNXFQAAAKiAYBUAUCvMQIa+VSCyUAEAAAAAeBYf7gUAAGKHWQlAQANEBnt2muw56SrOyA/3UgAAAADLYWIVAFCr6FsFIosz1xHuJQAAAACWRLAKAKh19K0C1kcFAAAAAFA1glUAQK0jqAGsjVAVAAAAqB7BKgAgLKgEAKzJ7FUFAAAAUDWCVQBA2BCuAtbkzHUwrQoAAABUg2AVABB25m3HAMKLCgAAAADAd/HhXgAAILaZU6sEOUB4mRUAxRn54V4KAAAAEBGYWAUAhB2VAED42XPS5cx1hHsZAAAAQMQgWAUAWIIz10G4CoSJPTuNXlUAAACghghWAQCWYAY69K0CtYteVQAAAMA/dKwCACyDvlWgdtGrCgAAAPiPiVUAgKXQtwrULnpVAQAAAP8QrAIALIlwFQgtKgAAAACAwBCsAgAsh9uSgdAiVAUAAAACR7AKALAkKgGA0LHnpId7CQAAAEDEI1gFAFgW4SoQfPbsNDlzHUyrAgAAAAEiWAUAWJ552zKAwFABAAAAAAQPwSoAwNKKM/K5bRkIAnt2muw56YSqAAAgJOJscbqp3/Ua0mNguJcC1Jr4cC8AAIDqmJUAbGoF+M+eky5nriPcywAAABEg3h6vwkl5kqTLnrhWX/28tNpzLjq7r14b+U9JUufRfbRx55aQrtEXPz6/RG2btNZd/87WhC/e8XhManJdDeubpaHnX6O2TVqrQWoDFRTu0dfrv9Prcydo0ZqvK53j/vFxljnVflQP7di/q9r1dGh2mlY8+6Uk6VhJsRrc1MbjNSsqcZZq78F9Wrbxe42fP0nzfvii2tdC7WBiFQAQEZy5DvpWAT/RqwoAAEJt085ftPPAbq3bvlG7HXvCvRyfdGrRXl8/NU8v3DpOvTv0UEpiivYf2q/mDU9RVq/Bmjtmuv7++z9XeQ17nF0jLhzm0+vdevGNPh23fd9Obd6V5/pR4NijpvUzNbj7ZZr18CS9+IenZLPZfLoWQouJVQBARHA+XUglAOAHelUBAEBt2LI7T23v7BruZfgsI62x5o6Zrkb1Gurr9d8p++2/aPmmlZKkeimpGjXwNj18zWjdd8Uflb9nm1799C2v1xpx4Q36x8wXVWaUeT0mOSFJN/72Op/WdtOLd2rJum/LPZZeJ00PDLlb9w+5S7f1H64NOzbppY/f8Ol6CB0mVgEAEcOsBADgG3pVAQAAPHt2xBNqVK+hVmxZpUFPXu8KVSXp4JFDGjfjeT0+9R+SpDG/y1ZyQpLH6+zYv0stGzfXgC4XVvl6V/e8Qg1S62vbvh1+rddRVKgxU8bp9bkTJEkPXjmKqVULIFgFAEQUwlWgZuhVBQAAteGMlh1VNHmbiiZvcz1298DbVDR5mz5/fJbHczq3PlNFk7dp78RNSk2u63q8Xkqqcq76k5Y//bn2TtykrW/8qOnZE3V+x55BWWvD1Aa66rzLJUkP/3esjhQf9Xjcv+dN1NGSY0qvk6aLzv6tx2MmL5ouSbqt//AqX/MP/Y/XAPzvq3f9XbYk6Y15b0s6PnHb/pR2AV0LgSNYBQBEJMJVoGpUAAAAgHB7b+lsOcuc6nl6NzWtn1np+SE9BkqSPv5+ng4dPSxJatGomRaMna2/Xv+Q2jQ5Vb/szpNNNg08t78+HfOebup3fcDruqzrxYq3x6ugcI8WrvG+Mdeho4c18YvJmr9qgVISkz0eM2XRDJU6S3Vpl4vUvOEpHo/p1KK9ftPhPB06eljvf/txQGv/dc9W188bpNYP6FoIHMEqACDiFGfkh3sJgKURqgIAACvYdWC3Fvy0WDabzRWiurvyvOOPTV08U5IUZ4vTxHv+pU4tOmjyouk6deQ56pZ9kVrccZZG/+cxxdni9Pyt49SqcYuA1tUms5Uk6cdf11Z77Oj/PKYh436v6V9/4PH5A4cd+nD5p8c3sbroBo/H/OHEplVTF89QcWmJn6s+rnXGyQGTfYf2B3QtBI5gFQAQkagEALxjozcAAGAV006EpleeuPXe1Caztc5s2VGOokLNXfm5JGlQtwHq3aGHfspfqz++dr8KjxyUJBmGodfnTtD0rz9QckKShgc4tZqZniHpeCgaqOSEJI2f/19J0ogLh8keZy/3fEpisn5/YtOqN+b9V0nxiQG93sgBIyRJBYV7tGHH5oCuhcARrAIAIhbhKlCZPTtNzlwH06oAAMASZn07R0dLjqlvp15qmNrA9fiQHpdJkmZ+85FrijOr92BJxydYS5ylla712aovJUk9T+8W0JoS4hMkSc4yZ0DXkaSkhCR98eMibdy5Rc0bnqLLul5c7vmsXoOVXidNyzau0Kq8n5SUUPNgNSUxWWe27KiXbntKt/e/SZL0zKyXZRhGwOtHYOLDvQAAAAJlz04jRAJEBQAAALCewiMHNef7+bq65yBd0X2A3l4wVZI0+ESw+u6S913HdmreXpI0dugjGjv0Ea/XbHJi4tRfpSdC24rTpf5ITkyWYRh667NJ+vvv/6zb+g/XR8vnup7/w4lNrcbPP77pVHJCUrXXnP/XmVU+/8qc8Xp5zvgAVo1gIVgFAEQ0c2qVIAmxzp6dJntOOh3EAADAcqYsmqGrew7SVecN0tsLpiojrbF6te+unQd268uflriOa5zWSJK0bvtGFRYd9Hq9vILA/r+z//ABSVJ6nbSAriNJiSemX99eMFV/+d1DuuScfmrZuLny92zTmS07qufp3XTgsEPvLZ0tSYq3J1R7zfw923Sk+Kjr16XOEu09tF8//PKjJi+coRVbVgW8bgQHwSoAIOKZ4SqBEmKZPSddztzAe8IAAACC7dOVn8lRVKgLz+qreimpGtRtgOJscZq+dLbKjDLXcWaY+PwHr2rigikhW8/67RslSWe27FDtsWOHPqJTM1tp6uKZ5SZRTTbZJB3fSGrmNx9qaJ9rdMtFv9fYabm67cS06v++etf13mw2W7WvecvLo7Rk3bc+vx+EDx2rAICo4Mx10LeKmEWvKgAAsLLi0hLN/OZDJSUkamDX/rryvIGSjneputu86xdJUpc2Z4d0PV/+tERlRpma1M9U7w49vB6XmlxXoy6/Xdf2HlIuAPbG3MTq5n5DlZZST8P6ZJV7HNGHYBUAEBUIlBCr6FUFAACRwAxRb7zgOvU7s48278rTd5tWljtmzvfzJUnDL7hezRo29Xid7u26BLyWrXu36+Pl8yRJT97wf0qwe76h+5aLblByQpL2Hzqgz1d/Ve11l6z7Vj/nr9UpDZpo/F0vKK1OPS1cs1TrTkzIIvoQrAIAooZZCQDECrNXlVAVAABY3cKfv9b2fTvVv3M/JSUkaprbplWmtxdMUV5BvuokpWjaA2+pTWZr13P166br1ZHP6qu/faQRF94Q8HoenDhGhUUH1at9d03PmajTmrZxPZeaXFejB9+pJ4Y9JkkaM2WcjpUU+3Td8Z9NkiRd0f3S479mWjWq0bEKAIgq9K0i1tCrCgAAQmn8XS+q6NgRr88/OPHPmr/qy2qvU2aU6d2ls3TvoJGSpHc9BKuHjxXp2qdHaPYj7+jctudo9fOLtGbrepWVlal9s9OUlJColVtWa+Y3H/r/hk74dc9WDR43TNOzJ6p/535a9dwi7TywW5LUJD1DNptNhmHoqZkv6M0TYakv3ln4np4Y9qjqJtVRQeEezfr244DXCusiWAUARCXCVUQ7KgAAAEBtaNGoWZXP10tJ9flaUxbN0L2DRmp13s9as3W9x2N+yl+rHjkX694rRmpw98vUrmkbFZcW66f8NZq25H299ul/VFxaUqP34M2yjSvU+f6+uufyOzS4+6U6NbOVEuwJ+nXPVi1e+41enztByzauqNE1C4sO6t0lszTiwmF6e8HUoK0V1mST7Ea4FwEAQLARrNYuQr7axccbABDNkrMyZUuofud0AAgno8SgYxUAEJ3oW0U0s+ekh3sJAAAAQMwjWAUARC3CVUQje3aanLkOplUBAACAMCNYBQBEPfO2aSDSUQEAAAAAWAebVwEAopo5tUoQhUhnz06TPSed7mAAAADAIphYBQBEPSoBEA3sOely5jrCvQwAAAAAJxCsAgBigjPXQbiKiEWvKgAAAGA9BKsAgJhAIIVIRa8qAAAAYE10rAIAYoZZCUBHJSIFvaoAAACAdTGxCgCIKfStItLQqwoAAABYE8EqACAmEa7C6qgAAAAAAKyNYBUAEHO4rRpWR6gKAAAAWB/BKgAgJlEJACuz56SHewkAAAAAqkGwCgCIWYSrsCJ7dpqcuQ6mVQEAAACLI1gFAMQ887ZrINyoAAAAAAAiR3y4FwAAQDiZU6sEWQg3e3aa7DnpdAADAAAAEYKJVQBAzKMSAFZgz0mXM9cR7mUAAAAA8BHBKgAAkpy5DsJVhA29qgAAAEDkIVgFAEB0WiJ86FUFAAAAIhMdqwAAnGBWAtBxidpCryoAAAAQuZhYBQDADX2rqG30qgIAAACRiWAVAAAPCFcRalQAAAAAAJGNYBUAgAq4LRuhRqgKAAAARD6CVQAAPKASAKFkz0kP9xIAALAuI9wLAAAfGGxeBQCAV2xmhVCwZ6fJmetgWhUAAC9sSTYl9m0kW0ocISsA67FJxpEyFS/cS7AKAEB17NlphGAICioAAADwQWKcSpYdkHG0TDJIVgFYjM0mW3KclBhHsAoAQFXMqVWCMATKnp0me046E9AAAFTDOOyUEuIIVQFYk2HIOFomo6SMjlUAAKpD3yqCwZ6TLmeuI9zLAADA+gwRqgKwNsOQDDavAgDAJ85cB+Eq/EavKgAAABB9CFYBAPABgRj8Ra8qAAAAEJ3oWAUAwEdmJQAdmfAVvaoAAABA9GJiFQCAGqBvFTVFryoAAAAQnQhWgRhhz05TYkHLcj/M21MB1BzhKqpDBQDgP/7fAgAAIgHBKhADzFtRKz2ek044BPiB27pRHUJVwH/8vwUAAEQKglUgynn74gRAYKgEQFX4exfwjy//b2FyFQAAWAXBKhDlfPninnAI8A/hKjyxZ6fJmetgWhUIEb5xAQAArIJgFQCAADE9BRMVAEBgCE0BAEAkiQ/3AgAAiGTm1CpBGsxbmOngBQAAAGIDE6sAJInddoEAUAkAkzPXEe4lABHHnp0me3aaz3+P8ucMAABYBcEqEOV8mZwqzsh3HZdY0JKQFfCDM9dBuBrDqAAAasZTmOrMdTDxDQAAIgrBKhADqvoixX3qw/l0ISEr4CcCtdhFqAr4xlOYWpyRL+fTha4f5mPesDEcAACwEoJVIEYUZ+S7QlRnrsM1FeLti5OqQlaCVsAzKgFij9mrCsCz6sJUb9z/3yKd/L8LoSoAALASm2Q3wr0IAJGjYojAFzlAZYkFLWPudtZYndqM1fcNVMX8c2HPST/5TV3+jACogeSsTNkSbOFeBgBUySgxmFgFUDPuk6zOXIfsOelUBgAe8Och+hGqAif5O5kKAAAQyZhYBRAUTLIC5cXa1GqshYyx9n4BT5hMBRAqTKwCiARMrAIIGiZZgfLoW41u9KoiVjGZCgAAcBLBKoCgcw9ZPW1+BcQKZ66DcDUK2bPTmMpHTCFMBQAA8IxgFUDIuQetEiErYocZOPC5Hj2oAECsIEwFAACoXny4FwAgtrh/Qeb+BRvTX4hWZiUAn9+Rz+ySjqXuXMQO975USa7OVD7fAQAAvGNiFUDYMMmKWEHfavQwwyYgGrhPpboHqkymAgAA+IZgFYAlELIi2tG3GtmoAEC0IEwFANS2OFucbup3vYb0GBjupQBBZ5PsRrgXAQDemLfeStQFIPIlFrSM2ttqozl4jOb3htjg7TZ/PqcBWFVyVqZsCbZwLwMexNvjVTgpT5J02RPX6qufl1Z7Tv/OF2j2I+9IkjqP7qONO7eEdI3++N1vrtKEe17R4WNFavPHLjp09LDXY5MTkrTv7c2VHjcMQ4eOHtaW3Xn6fPVCvfrpW8rfs63cMe4fv4pKnKXae3Cflm38XuPnT9K8H74I7E0h5IwSg4lVANbGJCuiCZUAkcf9mztAJPG0+RSTqQCAcNi08xftPLBb67Zv1G7HnnAvx6ObLxwmSaqbVEfX9h7i83nb9+3U5l152rwrT78U/KqE+AR1bn2m7rvij1r+9Be65JwLfTp38648FTj2qGn9TA3ufplmPTxJL/7hKdlsfIPB6ti8CkDEYOMrRAMzXI3WydVoxN8xiBTuk6lsPgUAsIotu/PU9s6u4V6GV60at1C/M89XibNUCfZ43dRvqCZ8Mdmnc2968U4tWfet69c2m03d23XRc7c8qXPbnqP//ulVnXnfb7T34L5qz5Wk9DppemDI3bp/yF26rf9wbdixSS99/EZgbxAhxcQqgIhU1SQr06yIBHyeWh8VAIgEniZTmUoFAMB3w/tdL5vNprc+m6RdB3arV/vu6tDsNL+uZRiGlm1coWtyb1bhkYNKq1NP1/S6wufzHUWFGjNlnF6fO0GS9OCVo5hatTiCVQARr2LIas9JpzIAllackc/t5RZHqAorI0wFAESSM1p2VNHkbSqafLJv9O6Bt6lo8jZ9/vgsj+d0bn2miiZv096Jm5SaXNf1eL2UVOVc9Sctf/pz7Z24SVvf+FHTsyfq/I49/VqbzWbT8At+J0mavGi63ls6W5J0U7+hfl3PtNtRoO83r5Ikv0LaN+a9LUnKSGus9qe0C2gtCC2CVQBRxT1kdeY6CFlhWfStWhvBN6yGMBUAEE3eWzpbzjKnep7eTU3rZ1Z6fkiPgZKkj7+f59pIqkWjZlowdrb+ev1DatPkVP2yO0822TTw3P76dMx7uqnf9TVex4Vn9VGrxi20ZXeevt3wvaYsnilJuqFvluLtgbVnJsYnSJKKjh2p8bm/7tnq+nmD1PoBrQOhRbAKIGoRssLqnLkOwlULsmen0asKSyBMBQBEq10HdmvBT4tls9lcIaq7K887/tjUE0FnnC1OE+/5lzq16KDJi6br1JHnqFv2RWpxx1ka/Z/HFGeL0/O3jlOrxi1qtA5zMnXa4uOTs8s3rdTGnVvUpH6mLut6sd/vr1OLDurWtosk6btNK2t8fuuMk//27zu03+91IPQIVgHEBEJWWJH7ZmywBioAEG6EqQCAWDHtRGh65XmXl3u8TWZrndmyoxxFhZq78nNJ0qBuA9S7Qw/9lL9Wf3ztfhUeOSjpeKfp63MnaPrXHyg5IUnDazC1ml4nzRXqTlsy021d70uSbq5hHYDNZlOzhk1142+v0+xH/qekhESt3LJaH373aY2uI0kjB4yQJBUU7tGGHZtrfD5qT2BzzQAQgSp+cer+BSw03DNFAAAgAElEQVRTaqhtZiUAn3fhZ89Okz0nnV3UUevMQN+eky5nrkOS+DwEAES9Wd/O0Qt/eEp9O/VSw9QGrsnMIT0ukyTN/OYjFZeWSJKyeg+WdHyCtcRZWulan636Ulm9Bqvn6d18fv3rz79ayQlJWp33s9ZsXe96fOriGXo0a7Qu7XKRMtMztNtR4PUa8/860+tzi9d+o6H/vE1lRplP60lJTFbbJqfqj5eO0K0X3ShJembWyzIMw8d3hHAgWAUQ89yDVkJWhIMZrhKkhJ8ZagGhRpgKAIh1hUcOas7383V1z0G6ovsAvb1gqiRp8Ilg9d0l77uO7dS8vSRp7NBHNHboI16v2SQ9w+fXH3HhMEkn6wZMG3Zs1ootq9S1TWfd+Nvr9M8P/uX1Gvl7tulI8VHXr1s0aqY6SSn697yJuu+tR6t8/apCWUl6Zc54vTxnfHVvA2FGsAoAbghZES5m3yrBSnhQAYBQcw9SJRGmAgAgacqiGbq65yBddd4gvb1gqjLSGqtX++7aeWC3vvxpieu4xmmNJEnrtm9UYdFBr9fLK/Dt39WzWnVSlzZnyzAMTXMLcN3X1bVNZw3vd32VweotL4/SknXfun5956W36tkRT+jKHgP16P+eqHLjqoqhbKmzRHsP7dcPv/yoyQtnaMWWVT69F4QXwSoAeEHIitrkfLqQnejDhFAVoeIpTOXfEAAATvp05WdyFBXqwrP6ql5KqgZ1G6A4W5ymL51d7hZ6M4B8/oNXNXHBlIBf15xWtdlsWv/yMq/HdWh2mnq1766v13/n03Xf+nySRg++Uy0aNdM9l9+uf8x80euxFUNZRCY2rwIAH7hvfiWJja8QEmYlAGqP2asKBIv75lPugSobUAEAUFlxaYlmfvOhkhISNbBrf1153vHNpCrenr951y+SpC5tzg74NRPjEzS0zzWSpO37dmrzrjyPP8zJ2JtPhLC+OFZSrL9Pf06SNHrwXWqY2iDg9cLaCFYBoIYIWRFKhKu1jwlCBIowFQAA/5kh6o0XXKd+Z/bR5l15+m7TynLHzPl+viRp+AXXq1nDph6v071dF59e74rul6phagMdOnpYXR74rc667zcef9zz5kOSpKxeg1U3qY7P72fSV9O0aecvSkupp4euvtfn8xCZCFYBIACErAgVPodCjwoABMI9TDWZ/x4QpgIA4LuFP3+t7ft2qn/nfkpKSPTYefr2ginKK8hXnaQUTXvgLbXJbO16rn7ddL068ll99bePNOLCG6p9vZv7DZUkzfj6Qx06etjrcbOXzdG+Q/uVmlxXWb0H+/x+Sp2lenL6s5KkOy65WS0bN/f5XEQeOlYBIEjoZEWwmFOrfN6EDqEq/OHemcrmUwCAWDf+rher3JzpwYl/1vxVX1Z7nTKjTO8unaV7B42UJL3rIVg9fKxI1z49QrMfeUfntj1Hq59fpDVb16usrEztm52mpIRErdyyWjO/+bDK12rWsKku7nyBJGnigslVHnuspFjvLHxPowberpv7DdPbC6ZW+15M0xa/r+wrR6lTiw7683XZuuPV+3w+F5GFiVUACIGqJlmZRIQvqAQILXpV4Stvk6lMpQIAYl2LRs3Uvlk7rz/qpaT6fK0pi2ZIklbn/aw1W9d7POan/LXqkXOxnp71ktZv36R2TduodWZL/ZS/Rg9Pelz9xgyWo6jqf5uHX/A7xdnitH77Ji1d533TKtN/Pn9HktS7Qw+1b9bO5/dTZpRp7LvPSJJu6JulTi06+HwuIotNshvhXgQAxIqKG+UwzYqqmJ8vkTARF0kToJG0VoSHp8lUPl8AoPYkZ2XKlmAL9zIAoEpGicHEKgDUJvdJVmeuQ/acdHpZ4ZV7tQSCg1AV3jCZCgAAgJpiYhUALIBJVlQlsaCl5adWIyGwjKQJYNQOJlMBwJqYWAUQCYwSg82rAMAKKm58JYnNr+Bi9q0SCAbODM8Qu9iACgAAAMFCsAoAFmOGqO5BKyErnLkOwtUARMJELUKHMBUAAAChQMcqAFicey+rJDpZYxSBoP8IVWMTnakAAAAINYJVAIgghKyxzawEgO8q9hcjerkHqYSpAAAAqA0EqwAQoQhZYxPhas1RoRG93MNUM0B35joIUwEAAFArCFYBIAoQssYefm+rRwVAdCJMBQAAgFXYJLsR7kUAAELD/TZopvaii9U2srJaiGm19SAw7ptPSXJtQMXvLwBEp+SsTNkSbOFeBgBUySgxmFgFgGjGJGv0ohKgavSqRj5vm08xmQoAAACrIFgFgBhByBp9nLkOwlUP7NlpTGhHKG9hKkEqAAAArIhgFQBiUFUhK0Fr5DCDJn7PTqICIPIQpgIAACBSEawCQIyrGLLac9KZZo0gxRn53PZ+gtkpTBhnfYSpAAAAiAYEqwAAF/eQ1ZnrIGSNEPStnmRuagTrIUwFAABAtCFYBQB4RMgaWWK9b5UKAGsiTAUAAEA0I1gFAFSrYsgqsfmV1cRySEWoai2EqQAAAIgVBKsAgBoxwxFvm18hfGKxEsDsVUV4EaYCAAAgFsWHewEAgMjmHpy4ByvOXAeBShiY4aoZescCPtdqn/s3Uew56a5J9lj6vAMAAACYWAUABA2TrNYRCx9zKgBql/tUqvuUMJOpAAAAiFU2yW6EexEAgOjmfrs204W1o7anVms75CRUrR3mx9n9z6/Exx0AEFrJWZmyJdjCvQwAqJJRYjCxCgAIPSZZa1+0963Sqxo6niZTnbkOJlMBAACACghWAQC1ipC19jhzHVEZrtqz05h8DjLCVAAAAKDmCFYBAGFDyBpa7puKRQsqAILHPUw1mX8eCVMBAGFFYSGASGBI8eFeAwAAksoFOe5hD5OJgTErAaLhY2h29bLzvP/cO1PNvlQ+ngAAq7El2ZTYt5FsKXGErACsxyYZR8pUvHAvwSoAwHq8hawSQas/zHA1GgI0MwyE7whTAQARJzFOJcsOyDhaJhkkqwAsxmaTLTlOSoyjCgAAYG3udQHOXIfsOelUBvgh0vtWqQCoGW+3+XOLPwAgEhiHnYSqAKzLMGQcLZNx2EmwCgCIHISs/ovkMI1Q1TeEqQCAqGGIUBWAtRmGZLB5FQAgQhGy1pxZCRBpzF3qURlhKgAAABA+dKwCACJexU5WSWx+5UWk9a3as9P4PayAzlQAAADAGphYBQBEFTNkNadZJTHJ6kEkfCyoADiJyVQAAADAephYBQBEtYrTrEyynpxatfL7t2enyZ6THrOTmO7BN5OpAAAAgDURrAIAYgYh60lWrwRwDxNjhfst/pIIUwEAAACLowoAABCTqAs4HtxZcTOrWOpVdb/F3z1Q5TZ/AAAAwPoIVgEAMS9WQ1Yrhnax0KtKmAoAAABEB6oAAABwE2t1AVaqBIjmXlVPt/lH6+cUAAAAECuYWAUAwItYmWQ1w1UriKZeVffJVJP5+cRkKgAAABD5CFYBAPBBLISs4QxXo6UCwFuYSpAKAAAARB+CVQAAashbyBrJQWs4b7+P9FCVMBUAAACITQSrAAAEwD1kdeY6ZM9Jj9iQNVyVAGbvaCQhTAUAAABgk+xGuBcBAEC0MTdiMkXSRkX+bGbl79RpJE2rum9AZXbBRsK6AQCINMlZmbIl2MK9DACoklFiMLEKAEAoRPoka22sMRJCVSZTAQAAAHgTH+4FAAAQ7dxDODNMNIM6K06ympUAoVyXOdEbzm5XbzxNplpxnQAAAADCi2AVAIBaZIaV7kGrFUNWM1wNVaDoHlpaAWEqAAAAgJoiWAUAIIwqTrNaKWR15jpCEq7as9PC/v7cqw4IUwEAAAD4g45VAAAswr2XVVLYO1lDEXyGs1fVvS/VfWMxOlMBAAAA+IOJVQAALMgqk6zBrAQIR6+q+y3+0omPnwWmgQEAAABEPiZWAQCwuHBPsprhajDURq+qp8lUZ66DyVQAAAAAQUWwCgBABAlnyBpIuBrqCgD3MNVEmAoAAAAglKgCAAAgQtVmXUAgU6uhClXdb/Nn8ykAAAAAtY2JVQAAokBtTLL6G666bxQVKE+TqUylAgAAAAgHJlYBAIgy3iZZpcCnWWu6mZU9Oy3g12QyFQAAoPb88dJb9M8Rf6vROUvXLdPFf73K9evU5Loa1jdLQ8+/Rm2btFaD1AYqKNyjr9d/p9fnTtCiNV9Xuka8PV6Fk/I8Xr/EWaq9B/dp2cbvNX7+JM374Quf1hWKawLubJLdCPciAABA6Nmz08pNj/obeCYWtKx0rqfb/QOpAPAUpjKRCgBAbEjOypQtwRbuZcSsYX2y9Ni1D1R6vE1mK9lsNu08sFtFx46Ue+77zT/ophfvlCR1atFe7z44QW2btJYkFRYd1JHiI2pSP9N1/PMfvqZH//dEuWu4h6Db9+3U0ZJjrueSE5LUrGFT16/Hz/+v7n3rERlG1ZFWKK4ZLM/d8qRGDhih1+dO0Oj/PFYrr4ngMkoMJlYBAIgVFSdZ7TnprqC1JiGrObVa1fHm9WsyWcpkKgAAQPhNXjRdkxdNr/R4wYQNqptURyNfu9/rdGdGWmPNHTNdjeo11Nfrv1P223/R8k0rJUn1UlI1auBtevia0brvij8qf882vfrpWx6vc9OLd2rJum/LPZZeJ00PDLlb9w+5S7f1H64NOzbppY/f8Pl9heKaAB2rAADEIPdOVmeuQ/ac9Br1srr3rboHoib3cLQqdKYCAABEj2dHPKFG9RpqxZZVGvTk9a5QVZIOHjmkcTOe1+NT/yFJGvO7bCUnJPl8bUdRocZMGafX506QJD145SjZbIFNNofimogtBKsAAMQ495C1JptfOXMdx49xm3w1z6tqApYwFQAAIPo0TG2gq867XJL08H/H6kjxUY/H/XveRB0tOab0Omm66Ozf1vh13pj3tqTj07HtT2nn/4J9vGZ6nTQ9fPW9+i73MxVM2KAdb67Rp2Pe09A+13gMYYf1yVLR5G2a95cZOqNlR3302FTtmbBRsx6eJEna+MpyFU3eppEDRkiSRg4YoaLJ21QwYUOla1153uX65M/vaeeba+WYlKefX1iq5255Uqc0aBKU943AUQUAAADK8bb5VaVeVbcJ1YrsOeke+1a5zR8AACA6Xdb1YsXb41VQuEcL1yz1etyho4c18YvJatf0VKUkJtf4dX7ds9X18wap9f1aq6/XbNuktWY9/I7aNT1Vpc5Srd22QfVSUtW3U2/17dRbg7oN0C0vj1Kps7TSNZs3PEXzxkx3XS81OVWS9MmK+WpYr4E6tz5LbZu01uZdeVqV92OlIHrcjWN076CRrvVt27dd7Zq21cgBI3Rt7yEaMDZLa7auD8r7h/8IVgEAgFdVhazVMSdXCVMBAACiX5vMVpKkH39dW+2xgWzW1Drj5F1P+w7t9/s61V0z3h6v/977mto1PVULflqsW14epV0HdkuS+nTqpcmj31BWr8HauGOLHp/2j0rXPDWzlTbs2Kw7//2gfvjlR1f4Omr8Q5JObl4174cvKn08zm17ju4dNFLFpSW67plbXJ22zRueoin3j1e3dl30wq3jNGBsVlDeP/xHFQAAAPCJe2VAVdOqFXGbPwAAQPTLTM+QJB04XP034ANh3kJfULhHG3ZsDtk1s3oNVtc2nbXrwG4NffYPrlBVkhat+Vp/evNhSdK9V4xU47RGla55+FiRBv7tOs1eNkd5Bfnatm+Hz+vpcVpXSdKKLavKbRS2bd8O3T/h/3SspFjd2nVRUkJizd8sgopgFQAAhAxhKgAAQGxIiE+QJDnLnEG/dkpiss5s2VEv3faUbu9/kyTpmVkvyzCMkF0zq9dgSdL/Fr6nwiMHK53//rcfa/OuPCUnJGnAORdWen7zzl+0fd9Ov9ZmnndGiw7q0ubscs8t27hCDW5qo0Y3t9OxkmK/ro/goQoAAADUSFUbWgEAACA2mbe62+PsAV9r/l9nVvn8K3PG6+U540N6zfbNTpMkLd+00uPxhmHop/w1atuktc5o2aFGa6nOnBXztXDNUvXt1FuLn5yjbzd+r/mrvtQXqxfqmw3LQxJewz8EqwAAoFqeNp+qjjPX4XXjKwAAAESX/YcPSJLS6wT+Tfj8PdvKbeZU6izR3kP79cMvP2rywhlasWVVyK/ZOK2hJMlR5P3/sDv275IkpaXUq/F6qlLqLNUVTw7VyAG36Lb+w9Xz9G7qeXo3PZZ1v7bv26nnPnxVr37ylsqMsqC+LmqOYBUAAHjkKUw1N59yPl3oCk29qWrjK0JWAACA6LJ++0ZJ0pk+TG+OHfqITs1spamLZ+qj5XMrPX/Ly6O0ZN23QV1fTa9ZWHRQDVMbuLpjPTFD5L0Hg7OJlrsSZ6lenvOGXp7zhlpntNSFZ/XRoG4DdPm5l+jpmx7X6ae01X1vPRr010XN0LEKAABc7Nlp5UJQyfvmU1VNrlZ8zn3jK0lKLGipxIKW1AoAAABEiS9/WqIyo0xN6meqd4ceXo9LTa6rUZffrmt7D7H0xOXabRskSWe27Oj1mK5tOkuSNu7cFNTXbtW4hdo1PVV1klIkSXkF+ZrwxWRd98wt+v3zIyVJt/Ufrgap9YP6uqg5glUAAGJcTcLUcufkpJcLS525DjlzHSrOyJc9J93r63kLWQlaAQAAItfWvdv18fJ5kqQnb/g/Jdg93yR9y0U3KDkhSfsPHdDnq7+qzSXWyOxlcyRJt170e9VLSa30fL8zz1f7Zsc3kPrwu8pTt9Uxe1LjbJWjuXdG/1urn1vs2lTL3Scr5sswDMXZ4pSR1qjGr4vgIlgFACAG+ROmlju/Qteq+XPz3OKM/GqrAszjzZDVmeuQPSedkBUAACBCPThxjAqLDqpX++6anjNRpzVt43ouNbmuRg++U08Me0ySNGbKOEvvaj950XSt3bZBDVLr6+0/vapG9Rq6nuvWrovevPslSdKzs1+psofVG7OftUubsyuF0O8tnS1Jeujqe3V+x56uxxPs8cq+6k+y2Wzad2i/ftn9a41fF8FFxyoAADGiqs7Uml7Hl55Uc/MqX1+jYierPSfdNflKLysAAID1/bpnqwaPG6bp2RPVv3M/rXpukXYe2C1JapKeIZvNJsMw9NTMF/TmZ5PCvNqqHSsp1tB//kEfPjpFl3a5SBtfWa41W9epTlIdtW/WTtLxAPQfM5/36/pzVnymx4c+rB6nddWv/16tktIStbmzq5xlTr0yZ7z6duqtgef217y/zFBeQb72HdqvUzNaqUFqfZU6S3XP+IdUXFoSzLcMPzCxCgBAFAt0MtXT9ST5dG4gQSiTrAAAAJFp2cYV6nx/X42b8bx+/HWNUpPrqkHd+vp1z1a9s/A99RszWGOn5YZ7mT5Zv32Tznuov56e9ZJ+KfhVHVu0V6N6DfTVz0t180t36eaX7lKJs9Sva/+cv1Z3vDpaG3duUYI9QXsPndwAq8RZqmufGaE/vn6/vvp5qdJS6unsVmfoaMkxvbtklvr+3yDN/OajYL1NBMAm2Y1wLwIAAASPp8nUYEx7uveqentNT69Tk6nVmqxDYpIVAIBolJyVKVuCLdzLAIAqGSUGE6sAAESDYE+meuPeq+orX/tWfV6Dl82vmGQFAAAAUJvoWAUAIAK5h4iBdqbW5PUCCWmDPbkqVe5lNQNcJlkBAAAAhBrBKgAAEcL9Fn9JIQ9TK75uIEFlsKdWPSFkBQAAAFCbqAIAAMDC3G/xdw9UQ3Gbv9c1nHjdQNVGuGqiLgAAAABAqLF5FQAAFuNtMjUcU5e+TqvWZKo1FJUAvmLjKwAArI/NqwBEAjavAgDAIjxtPlXbk6me1iSFJtAN1+Qok6wAAAAAgoWOVQAAwsR9MrW2+lJ9ZU52hmI9ZiVAuKdF6WQFAAAAEAiCVQAAapGVw1R37usLBTNctcp7rypkNZ8HAAAAAHdUAQAAEGKebvMP5y3+1bFnp9XK1KYz11Frm1nVRMW6AHtOOpUBAAAAACohWAUAIAQiLUw1hbJXtSIrfxxM7iGrM9dByAoAAADAhSoAAACCJFJu8/cmlL2q3litEqAqFesC7DnpsuekH3+OXlYAAAAg5jCxCgBAACJ1MtWbUPaqemOGq5GESVYAAAAABKsAANRQtIWpUu1WAHgTaeGqyT1kNSdvCVkBAACA6EewCgCAD6IxTDVZIVSNhCoAX1Xc/IqQFQAAAIhOBKsAAHjgHqRGY5jqzuwJDbdIrASoDiErAAAAEL1skt0I9yIAALAC982npJN9o9EUolYUrGnVYE69RspmVoEwN7+S2PgKAICKkrMyZUuwhXsZAFAlo8RgYhUAENvcJ1Pdg65onEytyAoVAN5E+0Qnk6wAAABA5GNiFQAQc2JxMrUic2IyWJOhwQ5pY2Fq1RMmWQEAYGIVQGRgYhUAEDM8bT4VK5Opnthz0l2BshVFY9+qL5hkBQAAACJHfLgXAABAqLhPppohYixOQVZkz06LiGlIZ64jZidXJZUL/N2/KRAJv3cAAABALGBiFQAQVTxNpsbqVKonVu5VrSgS1lhbqppkZZoVAAAACA+CVQBAxCNM9Y17f2ekiNVKgKpUDFntOelUBgAAAABhQLAKAIhIhKn+icTbyAlXvXMPWZ25DkJWAEB0YIttAJHAoGMVABBB6Ez1XyRVAHhjz06L6PWHWsVOVntOumtCORIDdQBA7LIl2ZTYt5FsKXGErACsxyYZR8pUvHCvbJKdv6YAAJblKUwlIKqZ2ghVa+M1Ynkjq0BUrIAgZAUAWF3KzafIFmeTcbRMMogsAFiMzSZbcpyMMoMqAACA9XCbf3BFWq+qN1QC+Me9LsDT5lcAAFiNcdhJqArAugxDxtEyGYedBKsAAGsgTA0Ne3ZaVE0oOnMdhKsBqrj5FSErAMByDBGqArA2w5AMNq8CAISJe5BKmBoa0dCrWpF7hygCR8gKAAAA+I+OVQBArXHvS5VEZ2oImb2atdVJWtshLn2roeXeyxpNE88AgMiQnJUpW4It3MsAgCoZJXSsAgBCzH0y1T2oYTI19MzgOhrRtxpaTLICAAAA1SNYBQAEHWFqeEVjBYAn9K3WDkJWAAAAwDOCVQBAUHjbfIowtXbFSqgqxcZ7tBpCVgAAAOAkglUAgN+8hakEqeHh3osZK6gECB9CVgAAAMS6+HAvAAAQWdw3oDI7PNlEyDpicaMhM1zl8zB83L+Z4v7NFjaoAwAAQDRjYhUAUC0mU60vlioAvGFS0hoqTrLac9KZZgUAAEBUskl2I9yLAABYj6fJ1FgO7azMCqGqFdbA1Kq1VayqiMXpagCAb5KzMmVLsIV7GQBQJaPEYGIVAHASk6mRKdZ6Vb2hb9Xa3CdZnbkOJlkBAAAQ8ehYBYAYR2dqZLNnpzH558aZ62ByNQJU7GSVVK6Xlc9nAAAARAImVgEgBjGZGh2scPu91VQM62B95t877r2sTLICAAAgEhCsAkCMIEyNLmZfJb93lRVn5FOPEMEIWQEAABApCFYBIEq5B6mEqdHJrG5AZfStRgdCVgAAAFgZwSoARBH3MNWc2HPmOghTowwVAL4x+1YRHQhZAQAAYDUEqwAQ4QhTYwuhqu/4GEUvQlYAAABYAcEqAEQgwtTYZPaqwndUAkQ/QlYAAACEC8EqAEQIb5tPEabGFmeug9/rGiJcjR2ErAAAAKhNBKsAYGHewlSC1NhDBUDgCNdiCyErAAAAQi0+3AsAAJRnftFvz0l37fpuBgOITYSqgTOnVvkYxib3b0a5f7PK/DuWzwsAAAD4g4lVALAAJlNRFXpVg4NKAEiVJ1ntOelMswIAAMAvBKsAECaEqfCFPTuNXtUgcuY6CFfh4h6yOnMdhKwAAACoEYJVAKhFhKmoCSoAgs/9dnDAHSErAAAAaoqOVQAIMTpT4Q97dprsOel8roQAfauoTsVOVknleln53AEARLNhfbL05t0v6tc9W9Xxnp5ej7vo7L768NEpkqQ6w5q7Ho+3x6twUl6l4/cU7lX+3m36ZMXnmvDFO8rfs83jdb2dL0klzlLtPbhPyzZ+r/HzJ2neD1/49J5CcU1AYmIVAEKCyVQEgxnEI/joW4WvzL+33XtZmWQFAMA32/ft1OZdedq8K09xcXHq2qazHrnmPq1+brFuv+SmGp2/eVeeChx71LR+pgZ3v0yzHp6kF//wlGw2m99rCtY1/fXcLU+qaPI2PXfLk7Xyegg+JlYBIEiYTEWwUAFQO8y+Vf6coiYqTrMyyQoAgHc3vXinlqz71vXrZg2b6vb+N+uBIXfphVvHKb1Omp6Z9bLP50tSep00PTDkbt0/5C7d1n+4NuzYpJc+fsPvNQXjmohdTKwCgJ/cp1KZTEWwEKrWHj7GCBSTrAAA1Mz2fTv1+LR/aPiLd0qS/nxdtjq3PrNG13AUFWrMlHF6fe4ESdKDV44KeMI0FNdEbCBYBYAacA9T7Tnpko5PKRGmIhjMXlXUHioBECyErAAA+G7Wtx9r6uKZSrDH694rRvp1jTfmvS1JykhrrPantAvKurxdM71Omh6++l59l/uZCiZs0I431+jTMe9paJ9rPAaww/pkqWjyNs37ywyd0bKjPnpsqvZM2KhZD0+SJG18ZbmKJm/TyAEjJEkjB4xQ0eRtKpiwodK1rjzvcn3y5/e08821ckzK088vLNVztzypUxo0Ccp7RmCoAgCAarjf4i+duN2TWz4RInxu1T4zXKUSAMFCXQAAANV767P/6frzr9aQHgOVkpisI8VHa3T+r3u2un7eILV+UNbk6Zptm7TWrIffUbump6rUWaq12zaoXkqq+nbqrb6deuv/2bvv+CbLxf3jV5pOKC0ttAzZe8mqCCgoSxQRF/oFB0s54kBQz2lBPc6fHrUcRQ9wHKCytOoBERwooKCgqIgsWVJGLWUVCm2hdKXP74+S0NJBk6bN+rxfL17qM+7cCWlsrty5nqExgzVu5kTlW/JLjHdJZAOtfHqxbazQ4FBJ0qZxL5EAACAASURBVNebVimyVoQ6N+2kFvWaat/RJG1N+qPEY/DS3U9r8tAJtrmlpB1Sy/otNGHwWN3W+0YNfn64dh780yn3HY4hWAWAUhCmorpRAeB65tgwHn84HSErAACl+23vJhmGoZpBNdQsuql2Htxt1/lNo85/6yjt9EmnzOnCMf3N/low+S21rN9Ma7b/qHEzJ+roqWOSpD7teynh0dka3muYEg/v13OfvFJivGbRTbTn8D498M4/tOXAH7bwdeKcKZIKL141YfBYrdyyWo++/2Sxc7u36KLJQycoNz9Pt/97nFZuWS2pMKz96LE5imnZVW/c85IGPz/cKfcdjqEKAADOKfo1fyvr1zr5mj+qEqGq6+VGJVPDgCpHXQAAAOedzc1WxtlMSYVhob2sX6NPzTiuPYf3OWVOF445vNcwdWveWUdPHdPIV++1haqStG7nz5r07lRJ0uQbJqhuWJ0S453JydKQF27Xsg3LlZSarJS0wxWeS49W3SRJm/ZvtYWqkpSSdliPzf2ncvJyFdOyq4ICAh26r3AOglUAPq2sMJUgFdWJQM890LeK6kTICgCAlJOXI0mqFVKzQseHBAarY+N2mjH+Zf1t0GhJ0r+XzpRhGA7Pobwxh/caJkn6YO0iWwhc1Ge/fqV9R5MUHBCkwV36l9i/78gBHUo74tC8rOd1aNRWXZtfWmzfhsRNihjdXHXGtFROXq5D48M5qAIA4HOKfs3fEp8uSXQrwmXMsWF8JdiNWOLT6VtFtSuvLsC6HwAAbxQcGCxJyjx7utT9q55dUu75s5bP0czlc+y6TXvGbNOwlSRp497NpR5rGIa2J+9Ui3pN1aFxW7vmcTHLN63S2p3r1bd9b/344nL9mvi7Vm39Xqu3rdUvezbKUmBx6u3BMQSrAHwCYSrcERUA7scyLUPmuHD6VuEyF4as5rjw4n3fPC8BAF6iZlAN1Tp3MadDJ4+Wekzy8ZRiF3TKt+TpxOmT2nLgDyWs/VSb9m+1+3btGbNuWKQkKT2r7P//Hj4397CQWnbPpTz5lnzd8OJITRg8TuMHjVLP1jHq2TpGTw5/TIfSjmj6F2/qza/fU4FR4NTbhX0IVgF4LcJUuDNrYMJz0v1YKwEIsOBqhKwAAFfIs+RJkvz9yo+MzOf2Wy/IZK+ebWJkMpl0NjdbB44llXrMuJkT9dPuXx0avyz2jJmRlanI0AhFh0eVeUx4jcL3nScynXMBraLyLPmauXy2Zi6fraZRjdW/Ux8NjRms67tfo2mjn1PrBi30yHtPOP12UXF0rALwKnSmwpNYA3+4H/pW4W6KdrJa4tNljgunlxUAUCWOnLtAU1R4XdUICinzuGbRhb8rHS5jtenFjB80SpL0xW/fKCvnrENjVLVdKXskSR0btyvzmG7NO0uSEo/sdeptN6nbSC3rN7P9HSSlJmvu6gTd/u9xuuv1CZIKH8OI0NpOvV3Yh2AVgMcjTIWnoQLAM1j7VgF3c2HIKnHxKwCA82zcu1lncrIUYPbXqKtHlHqM2c+ssf3vkCSt2rrG7tu466rbdPPlQ5Vvydd/vnqnUvOtSss2LJck3TPgLtUKCS2xv1/HK9WmYeEFpL74bYXd41t7Uv1MJeO5Dx99R9um/2i7oFZRX29aJcMw5GfyU1RYHbtvF85DsArAIxGmwlMRqnoO/o7gCaz/37MGrRIhKwCgcs7mZmv65/+VJL189zP6x00TVTOohm1/24attGTKfHVr3lmns8/o1WWzKjx2s+gmmjb6Ob1z/+uSpBcWvVrmhaHcQcK6xdqVskcRobU1f9KbqlMr0rYvpmVXvfvQDEnSq8tmldvDWhbrat+uzS9VgLl49cKi9cskSVNumawr2/W0bQ8w+yv25kkymUxKO31SB479ZfftwnnoWAXgEYq+OaQzFZ7K2pFIBYDnsFYC8FoDT3FhL6v1A0g6WQEA9nj50zfUpG5jje43Qs+PfFzPjZiqwyePqlZIqG3lZnpWhu6c/jftO1p6P6okvT9xps7mZstkMikytLYtmMzNz1Pc/Gf0zsp51XJ/HJWTl6uRr92rL574SNd2HaDEWRu18+Bu1QiqoTYNW0oqDEBfWfK6Q+Mv3/Stnhs5VT1addNf72xTXn6emj/QTZYCi2Ytn6O+7XtrSPdBWvnMp0pKTVba6ZNqFtVEEaG1lW/J18Nzpig3P8+Zdxl2IlgF4LaKXnxKEmEqvALhhuchXIWnImQFADiqwCjQ/W8/pkXrl+megXeqZ+vLFBVeV3n5edqatF1fb/pW//36PR1LTy13nMZ1L5EkGYah1Izj+m3vJn2z6TvNW/ORDp44VB13pdL+PLRXl08ZpEeHPaAbewxRu0ZtdCb7jH7YsV7vfrtAi9Yvk2EYDo29I3mX7nvzUU299RE1jKhv67eVCi9cddu/x2rU1f+nO/verkubtNclkQ2UmnFC//tpqV77/L/acuAPZ91NOMgkmR372weAKlBWmMobQHg6b68A8Pb7F5jamDAKXsO6el4iZAXgnoKHR8sUYHL1NACgXEaeQbAKwPUIU+HtvD10lHzjPrJqFd6IkBWAOyJYBeAJjDyDi1cBcI2iF58q+oaOC1DBG1mf4/Bs1koAwJtw4SsAAADHEawCqDZFw1Qr65s5wlR4K3NsGKvAvIglPp1wFV6LkBUAAMA+BKsAqlRZYSpBKnyBL3w93tcUvRAQ4M0IWQEAAC7O39UTAOB9inamWvtS6SWEr7H2FvLc9z7WSgACc/iKoh+GXvhhKSvyAQCAL2PFKgCnYGUqUJL1gwV4H/pW4auKrmS1xKfLHBfOalYAAOCzCFYBOIwwFSgdFQC+gb5V+DpCVgAA4OsIVgHYhTAVKB+hqu/g7xg4j5AVAAD4IoJVwEcUDUTtfZNDmApUjLVXFb6DSgCgpAtDVsmxi18V/f2DcBYAALgjk2Q2XD0JAFWrvLCnrAvrlHYBKkJUoHy+vFrVl++7VBgacaEy4OKK/k5S1oWvHPm9BYB3CR4eLVOAydXTAIByGXkGK1YBb3exFXTWlVbWVSGsTAUc4+vBIsSKOqACiq5mlUquZK3o7y0AAADuwN/VEwDgetY3KdaVqawGAexDqAprJQDPAaDiin5we+EHu+VhhTgAAHAXrFgFvFxF+x5ZmQo4jl5VSPStApVhXckKAADgSQhWAQCoBHNsWJk9gfA9lvh0wlUAAADARxCsArBVAACwDxUAuFDRrzUDAAAA8G4Eq4CXIzQFqob1AiuEqrhQblQy9RCAgypSB8DvNgAAwF0QrAJe7mKhD19hBhzHm3uUhb5VoGrwewsAAHAnBKuAD8iNSi41AOLNCeAYKgBQEfStAo7h9xYAAOApTJLZcPUkAADwFISqpeNxKV1gamOudA4AgJ2Ch0fLFGBy9TQAoFxGnsGKVQAA7EF3JuxBJQAAAADgvQhWAQCoIHNsGF9Fhd0IVwEAAADvRLAKAEAF8FV3VJb1OQQAAADAO/i7egIAALg7c2yYzHHhdGXCYdZVqwTzAABUAFeCAeAJDIJVAAAuyhwXXuoVqgF7WMNVAnoAAMpnCjIpsG8dmUL8CFkBuB+TZJwtUO7aEwSrAACUh15VOJMlPp1wFQCAiwn0U96GUzKyCySDZBWAmzGZZAr2kwL96FgFAKAs9KrC2XguAQBwccYZC6EqAPdlGDKyC2ScsbBiFQCA0tCriqpCJQAAABdhiFAVgHszDMkQK1YBACgLvaqoKtZwFQAAAIDnIlgFAOACVACguhCuAgAAAJ6LYBUAgCIIVVFdqAIAAAAAPBvBKgAARZjjwl09BfgQKgEAAAAAz0WwCgDAOebYMFni01mtimpFuAoAAAB4JoJVAABEBQBcz/ocBAAAAOAZ/F09AQAAXM0cGyZzXDidl3AZ66pVgn0AAADAc7BiFQDg88xx4bLEp7t6GvBxVAIAAAAAnoVgFQDg0+hVhTuxxKcTrgIAAAAegmAVAOCz6FWFu+G5CAAAAHgOOlYBAD6JXlW4K2slAM9NAAAAwL2xYhUA4LPoVYW7om8VAAAAcH8EqwAAn0MFADwF4SoAAADgvghWAQA+hVAVnoIqAAAAAMC9EawCAHyKOS7c1VMAKoxKAAAAAMB9EawCAHyGOTZMlvh0VqvCoxCuAgAAAO6JYBUA4BOoAICnsz6HAQAAALgHf1dPAACAqmaODZM5LpzOSngs66pVPhgAAAAA3AcrVgEAXs8cFy5LfLqrpwFUCpUAAAAAgHshWAUAeDV6VeFNLPHphKsAAACAmyBYBQB4LXpV4W14LgMAAADug45VAIBXolcV3spaCcBzGwAAAHAtVqwCALwWvarwVvStAgAAAK5HsAoA8DpUAMBXEK4CAAC4To2gEGUlpCgrIUW92lzm6unABQhWAQBehVAVvoIqAAAAANeyFFhs/55vyXfhTOAqBKsAAK9ijgt39RSAakMlAAAAgOtYCgps/55fJGSF7yBYBQB4DXNsmCzx6axWhU8hXAUAAHCNoitWLQSrPolgFQDgFagAgK+z/gwAAAB4kjv6DFdWQoq+/39flNgXXiNM6QuTlDZ/n2oEhZTY//PLK5SVkKKbLx9a4rypt0zWb/HfKnXuHh1+d6e+eXqRRva5VSaTqcy52HueYRgqMApXreZbCFZ9kb+rJwAAQGWZY8NkjguncxI+y7pqlQ8WAACAp1m5dY0Mw1C35peqVkioMs+etu27tusABZj9FWD218BLr9bnv31t2xdeI0ydmrRXviVf3/3xg217i3pNtXTqh2pZv5nyLfnalbJHtUJC1bd9b/Vt31tDYwZr3MyJJTpRHT3PUlAgP7OfLAV0rPoiVqwCADyeOS5clvh0V08DcCkqAQAAgCc6nnFCm/Zvlb/ZX33a9yq27/qYa2z/PjRmcLF9V7brKT+Tn37Zs1EZWZmSJH+zvxZMfkst6zfTmu0/qvXEHrp8yiC1n9RLg58frhOZaRrea5ieHP73YmM5ep50vgKAKgDfRLAKAPBo9KoC51ni0wlXAQCAx/lm82pJ0tUdrrRt8zf769quA7T7UKJOnUnXkO4D5Wc6H2P17dBbkrTi3LmSNLzXMHVr3llHTx3TyFfv1dFTx2z71u38WZPenSpJmnzDBNUNq1Pp8yTZVrBSBeCbCFYBAB6LXlWgOH4WAACAJ1qx+TtJUr9O54PVPu16KrxGmJZtWK7lm1YpKqyuerTqZtvf99zq1m/OnSsVBqSS9MHaRco4m1nidj779SvtO5qk4IAgDe7Sv9LnSVJBgbVjlSoAX0SwCgDwSNZeVYIkoDgqAQAAgKf5be9mnTx9Spc26aCI0NqSztcAfLlxhT7f8I2k83UAtUJC1aVZJx09dUzb/tphG6dNw1aSpI17N5d6O4ZhaHvyTklSh8ZtK32eRBWAryNYBQB4LHpVgdIRrgIAAE9iKbDo220/yGQy2eoAru8+WMfSU7UhcZNWblmt7LwcDT0XtvZq00NmP7NWbCm88JVV3bBISVJ6VtmLLw6fPCpJCgupVenzJCn/3EWr8glWfRLBKgDA41ABAFQM4SoAAPAUK7ec61nteIXaN2qrFvWa6qvfV8kwDJ3JydJ3235Q+0Zt1Ty6qa0GwHqOlfUiVtHhUWXeTniNwvcSJzJPVvo8SbJQBeDTCFYBAB6FUBWomNyoZFdPAQAAoMKsq0+v7nilbWXqlxtX2PZ/vuFrSYV1AH079JalwKJVW78vNsaulD2SpI6N25V5O92ad5YkJR7ZW+nzJKn7P/qp8X2XlrvaFd6LYBUA4FHMceGungLgMagEAAAAnuLoqWPamrRd7S5prVFXj9DZ3Gx9t+0H2/4vNq6QpcCi26+4Sd1bdNGGxE06daZ4NdiyDcslSfcMuEu1QkJL3Ea/jleqTcOWysnL1Re/raj0eZJ06ky6TmSmFaskgO8gWAUAeAxzbJgs8emsVgXsQLgKAAA8xYpzX+1v3aCFVv+xVmdzs237TmSmaf3uDerRqpsCzP4lagAkKWHdYu1K2aOI0NqaP+lN1akVadsX07Kr3n1ohiTp1WWziq0wdfQ8SRp46VUa02+k/M3+TngE4Gn4WwcAeAQqAIDKMceG8fMDAADc2orNqxV708OSVGJlqCR9/tvX6nOuX/WbzSWD1Zy8XI187V598cRHurbrACXO2qidB3erRlANtWnYUpK0aP0yvbLkdaecV7tmuD6bulBmP7Ny8/OUsG5x5R8EeBRWrAIA3J45NkzmuHBCIcBBuVHJ1GgAAAC398uejcrIypRhGFq+aVWJ/cvO9awezzihTfu3ljrGn4f26vIpgzRt6QwdSP1L7Rq1UZ1aEfphx3qNmfGgxsx4UHmlXGjKkfPOZJ/R1qTtOpGZph0HdzvhEYCnMUlmSiAAAG4tMLUxFQBujhXFniEwtTEXtQIAuL3g4dEyBZhcPQ0AKJeRZ7BiFQDg3uhVBZzHEp9O3yoAAADgJASrAAC3xSpIwLn4WQIAAACch4tXAQDckrVXla8tA86VG5VMJQAAAADgBKxYBQC4LUt8uqunAHgla7gKAAAAwHEEqwAAt0MFAFA9CFcBAAAAxxGsAgDcCqEqUD2oAgAAAAAqh2AVAOBWzHHhrp4C4DOoBAAAAAAcR7AKAHAb5tgwWeLTWa0KVCPCVQAAAMAxBKsAALdABQDgWtafQQAAAAAV4+/qCQAAYI4NkzkunM5HwEWsq1b5YAMAAACoOFasAgDcgiU+3dVTAHwalQAAAACAfQhWAQAuRQUA4D4s8emEqwAAAEAFEawCAFyGUBVwL/wsAgAAABVHsAoAcAlrryoA90IlAAAAAFAxBKsAAJexxKezQg5wQ4SrAAAAwMURrAIAqh0VAIBnsP6sAgAAACiJYBUAUK0IVQHPkBuVTF0HAAAAUA6CVQBAtSKoATwHlQAAAABA2QhWAQDVxhwbRq8q4GEs8emEqwAAAEApCFYBANWCCgDAM1l/ZulbBQAAAIrzd/UEAADezxwbJnNcuHKjkl09FQAOsFYC8MEIAAAAcB4rVgEA1cISn+7qKQCoBPpWAQAAgOIIVgEAVYoKAMB70LcKAKgWhqsnAAAVYFAFAACoQoSqgHexTMuQOS7c1dMAAHg5U5BJgX3ryBTiR8gKwP2YJONsgXLXniBYBQBUDWuvKhUAgHexVgLQmQwAqDKBfsrbcEpGdoFkkKwCcDMmk0zBflKgH1UAAICqY4lPZ7Uq4IXoWwUAVCXjjIVQFYD7MgwZ2QUyzlgIVgEAzkcFAOAbrD/rAAA4lSFCVQDuzTAkg4tXAQCcjFAV8A25Ucn0rQIAAMCnEawCAJyKoAXwHVQCAAAAwJcRrAIAnMYcG0avKuBjLPHphKsAAADwSQSrAACnoAIA8E3Wn3n6VgEAAOBr/F09AQCA5zPHhskcF67cqGRXTwWAC1grAfhgBQAAAL6EFasAAKewxKe7egoAXIi+VQAAAPgaglUAQKVQAQDAir5VAAAA+BKCVQCAwwhVARTFawEAAAB8CcEqAMAh1l5VACiKSgAAAAD4CoJVAIDDLPHprFADUALhKgAAAHwBwSoAwG5UAACoCOtrBQAAAOCNCFYBAHYhVAVQEblRydSFAAAAwKsRrAIA7EJQAqCiqAQAAACANyNYBQBUmDk2jF5VAHaxxKcTrgIAAMArEawCACqECgAAjrC+ZtC3CgAAAG/j7+oJAADcnzk2TOa4cOVGJbt6KgA8kLUSgA9mAAAA4E1YsQoAqBBLfLqrpwDAg9G3CgAAAG9DsAoAKBcVAACchb5VAAAAeBOCVQBAmQhVATgTryUAAADwJgSrAIBSWXtVAcCZqAQAAACAtyBYBQCUyRKfzgozAE5HuAoAAABvQLAKACiBCgAA1cH6WgMAAAB4IoJVAEAxhKoAqkNuVDJ1IwAAuLk7+gxXVkKKfnl5ZYXP6dC4nbISUpSVkFJsu5/JT6P7jdCNPYY4e5rVxpHHozLnwf35u3oCAAD3Yo4LlyU+3dXTAOADrJUAuVHJrp4KAAAewd/sr4yFSaXuy7Pk60RmmjYk/q45qxZq5ZbV1Ty78g24tK/emvCaJKnzo32UeGR/tdzu/11xs+Y+PEtncrLU/P6uOp19plpuF76BFasAABtzbBi9qgCqlSU+nb5VAAAccCjtiPYdTbL9SU0/rvq1ozXssuu0dOpC/efel2UymVw9TZu9Rw7oyKlj2n0oUcfSj1fb7Y7pf4ckqWZQDd3W+8Zqu134BlasAgAkUQEAwDUs0zJkjgsv/GCH1x8AACps9H8e0E+7fy22LbxGmP5+40N67MYHNX7QKO05vFczvprtohkWt/9Yklo80K1ab7NJ3Ubq1/FK5VnyFWD21+h+IzV3dUK1zgHejRWrAACZY8MKKwAINQC4AH2rAAA4R3pWhp7+6CW9vWKuJOkfN010q1Wr1W1UvxEymUx679uFOnrqmHq1uUxtG7Zy9bTgRQhWAQCSRK8qAJey9q0CAIDKm71yviQpKqyu2jRoKUkaP2iUshJS9O2zn5V6zozxLysrIUXTx71Y6v5GdRrqrQmvad+bm3RqwQFtf+MnPTtiimoEhVRoTmVd1MqqQUQ9/euup7TltbU6MW+vDs3ZoSVTFqhv+94VGv9CJpNJo67+P0lSwrrFWrR+mSRpdL+RFz23S7NOWhQ7V4fm7FDa/H366V9f656Bd180pLb3POtFrVY+86k6NG6nL5/8WMfnJmrp1IW2Y2qFhCru5knaOO07nZi3Vwdn/6HFsfN0ZbueZc7jpsuv19dPLdKRd3cpfWGSdryxXtPHvagGEfWccjzOowoAAHwcFQAA3IW1b5WLWQEAUDl/HT9o+/eI0NqVHi86vK7WvfiVosLq6sipY8rIylDz6KaKu3mSru54pYb8v9uVnZfj8PjdW3TRp3HzFB0epaycs0o8vE8NI+vr2q4DNLhLf01Z8JxmLrev0qB/pz5qUreR9h9L0q97fpeloEAPDRmvO/sO1zMfv6x8S36p5w3qfLUWxc5ToH+A8i35Skk7rFYNWmjm+Fe0/1jpFw6rzHmSdElkA618erHt7yo0OFRSYZi9dOpCtW/UVtl5Odp/9IDq166nId0H6dpuA/TgO//Q/DUfFxvrpbuf1uShEyQVPg9S0g6pZf0WmjB4rG7rfaMGPz9cOw/+6fDxKI4VqwDgwwhVAbgTXosAAHCOplHnvwWSdvpkpcerVztaSakH1eWxvmr5YHc1mdBZN78ySplnT6tn6xj9/aaJDo8dGlxTHzzytqLDozR/zcdqOqGzek69Rk0mdNYj7z0hSXp51NPq0qyTXeNaV6Z+8uNSSdLGvZuVeGS/6tWO1nXdBpZ6TliNWnr3of8o0D9Ay39fpZYPxqj9pF5qOL6DHnwnVpdENnTqeVbNopvoeGaaRr42Xu0n9dLo/zwgP5Of5j38X7Vv1FYJ6xar2YQuiokdoEb3ddKj7z8pP5OfXr/nJTWp28g2TvcWXTR56ATl5ufpppfvVruHeyomdoA6Tu6tjXs3q06tSL1xz0sOH4+SCFYBwEdZe1UBwJ1QCQAAQOVNGDxWkpSacVx7Du+r9HjpWRm6NX60Eo/st21bsfk7vbj41cLbu2aM/M2OfSn6zr63qWlUY+1I3qWHZsfqTE6WJMkwDL2zcp7mrflIfiY/je1/R4XHDK8Rpht7DJEkffLTEtv2T34srEEYU0YdwF19b1dUWF2lpB3W3W9MUGrGcUlSviVfc1d/qPjP3nDqeVZncrI05IXbtWzDciWlJisl7bCGxgxW77Y9tD15l+5/6zFlnM20PS5vr5irxT9/ruCAII3qN8I2To9WhRcH27R/q1ZuWW3bnpJ2WI/N/ady8nIV07KrggICHToeJRGsAoAPs8Sns0IMgNshXAUAwH4hgcHq2LidZox/WX8bNFqS9O+lM2UYRqXH/iv1oE5kppXYPve7BBUYBaobVkftG7VxaOwbLhssSUpY96ksBZYS+9/7dqHe/XaBXQHxiCtvUXBAkLYl7Sj2NfaPf/xUknRt1wGKDo8qcd7AzledO26JzuZml9i//+hfpd6eo+dZ7TtyQIfSjhTbNrz3MNuYeaXUFny79XtJUs/WMbZt1jE6NGqrrs0vLXb8hsRNihjdXHXGtFROXq5Dx6MkOlYBwAdRAQDAE5hjw3idAgCgDKueXVLu/lnL52jm8jlVOoeMs5k6ln5c9WtHq1lUE21L2mH3GE2jmkiSdhzcXer+3/Zu1m97N9s1pnV168c/Fn+M9hzep037t6pb8866+6rb9drn/y22v3l0U0my+344el552l9SGFQ/P/JxPT/y8TKPq1ckIF6+aZXW7lyvvu1768cXl+vXxN+1auv3Wr1trX7Zs7FEcG3v8SiJYBUAfAyhKgBPYF21ymsVAAClSz6eUmx1ZL4lTydOn9SWA38oYe2n2rR/a7XMI/VcsForJNSh8yNqFtaTZZ2rAKisTk3aq2vzS2UYhj756bMS+z9a96m6Ne+sUf1GlAhWQ4NrSpLta/cV5eh55akbVkeStPtQojKyyh43KfX8RT/zLfm64cWRmjB4nMYPGqWerWPUs3WMnhz+mA6lHdH0L97Um1+/pwKjwKHjURLBKgD4GHNcuCzx6a6eBgBclDVczY1KvvjBAAD4mHEzJ+qn3b+6ehoKDSkMFc84GIxmZp9W3bA6qlurjlPmY12tajKZ9OfMDWUe17ZhK/Vqc5l+/vM327bT2aclSVFh9s3F0fPKYw3NX//8Tc1b81GFz8uz5Gvm8tmauXy2mkY1Vv9OfTQ0ZrCu736Npo1+Tq0btLBdFMyR41EcHasA4EPMsWH0qgLwKJb4dPpWAQBwgnxL4de6nXkholohobar0u8/muTQGInnulNb1GtW6v6I0Nq6ou3l6tC43UXHCvQP0Mg+t0oq7A/ddzSp1D/WFaBjLrgglvXiXG0atrLvPjh4Xnn2yAa77wAAIABJREFUHT0gSSW6T8vTpG4jtazfTDWCQiQVrmaduzpBt/97nO56fYIkafygUYoIre3Q8SiJYBUAfAQVAAA8kfU1y/oaBgAAHHMsPVVSYR9ogLnkF5hbNyg7FGwS1UhRYXVLbL+jz3CZ/cxKzTheZkfqxXyzufBq9KP6jZCfqWRMNen6CVr17BJNHHLvRce64bJrFRkaodPZZ9T171ep0yNXlPrn4XenSJKG9xqmmkE1bOev3LJGkjT66hEKCQwuMX6rBi1KvV1HzyvP8t9XSZJGXT1CDSPrl3rMZS27FvvvDx99R9um/2i7eFlRX29aJcMw5Gfys62stfd4lESwCgA+wBwbVlgBQKgKwAPlRiXLHBfu6mkAAODRftmzUbn5eYoIra0nhv9dJpNJkhQZGqHp417UVR16l3lueI0wLZkyX22LrMi8rttAvXDnk5Kkt1fMVX4pV66viAXff6xDaUfUqn5zvTbuhWLB5O1X3KRHhz2gAqNAs1cuuOhYY/qNlCR9+vMXOp19pszjlm1YrrTTJxUaXFPDew+zbf/4xyU6cuqY6obV0dyHZ6lOrUhJkr/ZX/cOvFv/uGliqeM5el555q/5SEmpyaoRFKJP/v6e7QJZklS7ZrjenPCqfnjhS43tf6dt+6L1yyRJU26ZrCvb9bRtDzD7K/bmSTKZTEo7fVIHjv3l0PEoiY5VAPAR9KoC8GT0rQIAUDknMtM0c/lsPTbsQU25ZZIeuG6cMrIyVb92tPzN/tp/LKlYeFfUn4f2qmlUY/3+7zU6fPKoAv0DbBdXWr97g15dNsvheWWePa07po/X0qkf6L5rxuiOPsO15/BeNYiorwYR9WQpsOiR95646MW4GkbW18DOV0uS5q1JKPfYnLxcfbh2kSYO+ZvG9LtD89d8bJvLuJkP6bMpH2jYZddpSLdBOnjikOqG1VFocE1tS9qhS5t2KPU+OHJeec7kZOm2aWO17PEP1b1FF217fZ12HvxTBQUFatOwlYICArV5/zYt+eUL2zmzls9R3/a9NaT7IK185lMlpSYr7fRJNYtqoojQ2sq35OvhOVOUm5/n0PEoiRWrAODlqAAA4C3oWwUAoHKeSviXpix4VrsPJSo4IFhhIbW0dufPuuWVUfpw7eIyz9uevEtXPjFEH6xdJLOfn8JrhuvAsb/08pI3NOylO5STl1upeW1I3KQecQP19oq5OpGZpk5NOsjfbNaSX75U/6dv1JxVF1+tOurq/5OfyU9/Htqr9bvLvmiV1fvffShJ6t22h9o0bGnb/v32n3TVU0P11e8rlZVzVvVqR2vvkf16eM4UPTQ7tszxHD2vPNuTd6lH3EBNWzpDfx7aq5b1m6tpdGNtT96pqQufU7+nhyk96/z7vDxLvm7791jd//Zj+mHHeoWF1NKlTTooOy9H//tpqfr+c6iW/PKlw8ejJJNkNlw9CQBA1SBURXXhuYbqwqpVAPB+wcOjZQowuXoaAFAuI89gxSoAeDM6CQF4G2slAAAAAOBqBKsA4KXMsWGyxKezghCA1yFcBQAAgDsgWAUAL8TXsgH4AutrHQAAAOAK/q6eAADAucyxYTLHhdNBCMCrWVet8gESAAAAXIUVqwDgZcxx4bLEp7t6GgBQ5agEAAAAgCsRrAKAF6FXFYCvscSnE64CAADAJQhWAcBL0KsKwBdZX/PoWwUAAEB1o2MVALwAvaoAfBl9qwAAAHAFVqwCgJegVxWAL6NvFQAAANWNYBUAPBwVAABwHuEqAAAAqgvBKgB4MEJVADiPOhQAAABUJ4JVAPBg5rhwV08BANwKlQAAAACoLgSrAOChzLFhssSns1oVAC5AuAoAAIDqQLAKAB6ICgAAuDjrayUAAABQFfxdPQEAgH3MsWEyx4XTJQgA5bCuWuUDKAAAAFQVVqwCgIcxx4XLEp/u6mkAgNujEgAAAABViWAVADwIvaoAYB9LfDrhKgAAAKoEwSoAeAh6VQHAfrxmAgAAoKrQsQoAHoBeVQBwnLUSgNdQAAAAOBPBKgC4EeuqVHNceLHtlvh0elUBoBJsF7OKTy/xGkvgCgAAAEcQrAKAm7CuSi11H6tVAaBSyvrgShKrWQEAAOAQOlYBwENw8RUAqDq8xgIAAMBeBKsA4AbKW60KAKgcXmMBwMMYrp4AAFSAQRUAAHgUc2wYV7gGgCrCaywAuAdTkEmBfevIFOJHyArA/Zgk42yBcteeIFgFAAAAAABuJNBPeRtOycgukAySVQBuxmSSKdhPCvSjCgAA3AErpACg6vAaCwCexThjIVQF4L4MQ0Z2gYwzFoJVAPAUlvh0wgEAqCK8xgKAGzFEqArAvRmGZHDxKgBwG7lRyWXu4w0/AFQOr7EAAABwNoJVAHAjuVHJssSnF9vGG34AcA5eYwEAAOBMJsnM+noAAFAp5tgwSXRZAgCAygseHi1TgMnV0wCAchl5BitWAQAAAAAAAMBeBKsAAAAAAAAAYCeCVQAAAAAAAACwE8EqAAAAAAAAANiJYBUAAAAAAAAA7ESwCgAAAAAAAAB2IlgFAAAAAAAAADsRrAIAAAAAAACAnQhWAQAAAAAAAMBOBKsAAAAAAAAAYCeCVQAAAAAAAACwE8EqAAAAAAAAANiJYBUAAAAAAAAA7ESwCgAAAAAAAAB2IlgFAAAAAAAAADsRrAIAAAAAAACAnQhWAQAAAAAAAMBOBKsAAAAAAAAAYCeCVQAAAAAAAACwE8EqAAAAAAAAANjJ39UTAAAAAAAAgGvcf+04vTb2BbvOWb97gwY+e3MVzQjwHASrAAAAAAAAPir9TIb2HU0qsb15dBOZTCYdOXVMWTlni+1LSTtcXdPzetPHvagJg8fq7RVz9ej7T7p6OrATwSoAAAAAAICPSli3WAnrFpfYnjp3j2oG1dCEtx7Tyi2rXTAzwP3RsQoAAAAAAAAAdiJYBQAAAAAAgF3u6DNcWQkpWvnMp+rQuJ2+fPJjHZ+bqKVTF9qO6d6ii957aIYSZ21U+sIkHZz9hz6Nm68r2/Usc9wGEfX0r7ue0pbX1urEvL06NGeHlkxZoL7te5d5Tq2QUMXdPEkbp32nE/P26uDsP7Q4dl6pt1OReUtSeI0wTb1lsn6L/1apc/fo8Ls79c3TizSyz60ymUwlxh0/aJSyElL07bOflTrHGeNfVlZCiqaPe1GSlDhro7ISUjRh8FhJ0oTBY5WVkKLUuXsqdf9QvagCAAAAAAAAgEMuiWyglU8vVkRobUlSaHCoJOmhIeMVP+pZmUwmHUo7os37t6lZdGNd122gBnftr3EzJ+p/Py0tNlb3Fl30adw8RYdHKSvnrBIP71PDyPq6tusADe7SX1MWPKeZy2cXO6dRnYZaOnWh2jdqq+y8HO0/ekD1a9fTkO6DdG23AXrwnX9o/pqPKzxvSWpRr6mWTv1QLes3U74lX7tS9qhWSKj6tu+tvu17a2jMYI2bOVH5lnyHH7evN61SZK0IdW7aSS3qNdW+o0namvSHzuZmO+X+oXoQrAIAAAAAAMAhzaKbaM/hfXrgnX9oy4E/lG/JV4fG7fTKqGdUYBRowpuPKWHdYhmGIX+zv/7fHU9o8tAJmj7uRS399Svl5udJkkKDa+qDR95WdHiU5q/5WH+f+0+dycmSyWTS3waN1vRxL+rlUU9r7c712nLgD0mSn8lP8x7+r9o3aquEdYv16HtPKuNspkwmk+67Zoymj3tRr9/zktb88aP+On7wovOWJH+zvxZMfkst6zfTmu0/atzMiTp66pgkqU/7Xkp4dLaG9xqmxMP79dwnrzj8uE2cM0XS+YtXrdyyusTFqypz/1A9qAIAAAAAAACAQ87kZGnIC7dr2YblSkpNVkraYUWG1tb7332g5z+Zpg/XLpJhGJKkfEu+nkr4l87mZisyNEJdm19qG+fOvrepaVRj7UjepYdmx+pMTpYkyTAMvbNynuat+Uh+Jj+N7X+H7ZyhMYPVu20PbU/epfvfekwZZzNt57y9Yq4W//y5ggOCNKrfiArNW5KG9xqmbs076+ipYxr56r22UFWS1u38WZPenSpJmnzDBNUNq+PkR7O4ytw/VA+CVQAAAAAAADhk35EDOpR2pNi2dTt/1sNzpmra0hkljs+35Cs147gkKTI0wrb9hssGS5IS1n0qS4GlxHnvfbtQ7367QHsO77NtG957mCTp4x+XKK+Ur+V/u/V7SVLP1jEVmrdUGKxK0gdrF9mCzKI++/Ur7TuapOCAIA3u0r/EfmeqzP1D9aAKAAAAAAAAAE53bdcBGtN/pGJadFV0eJSCAgKL7S96EaimUU0kSTsO7i51rN/2btZvezcX29b+kjaSpOdHPq7nRz5e5jzqhUdVeM5tGraSJG284LasDMPQ9uSdalGvqTo0blvhcR1RFfcPzkWwCgAAAAAAAKd6c8KrGtNvpAzD0Po/N+i7P9YqLfOkCowC/e2a0QoLqVXs+Iia4ZKkrHMVABVh/Sr+7kOJysgqubrUKik12Y4xIyVJ6VkZZR5z+ORRSSpxH5ytKu4fnItgFQAAAAAAAE5za68bNKbfSKVmHNf1L4zQ9uRdxfbffsVNJULJzOzTqhtWR3VrVby39GxutiTp9c/f1Lw1H1V+4pIysjIVGRqh6HJWgYbXCJMkncg86ZTbLEtV3D84Fx2rAAAAAAAAcJqhMYV9qR+uXVwiVC1L4rnu1Bb1mpW6PyK0tq5oe7k6NG5n27bv6AFJKnYRrMralbJHktSxyO1cqFvzzpKkxCN7bdvyLYW9sBfWHVRGVdw/OBfBKgAAAAAAAJymVnCoJCnAXPKL0i3rNyt1Neg3m1dLkkb1GyE/U8m4atL1E7Tq2SWaOORe27blv68qPOfqEWoYWb/UuVzWsqtdc1+2Ybkk6Z4Bd6lWSGiJ/f06Xqk2DVsqJy9XX/y2wrb9WHqqJKl5dNNS73frBq1KvT3rhbpKu89Vcf/gXASrAAAAAAAAcBrrRabG9L9DAy7tK6kwOLy++zX6+qlFCg4IkiTbPyVpwfcf61DaEbWq31yvjXtBIYHBtn23X3GTHh32gAqMAs1eucC2ff6aj5SUmqwaQSH65O/vqXl0U9u+2jXD9eaEV/XDC19qbP87Kzz3hHWLtStljyJCa2v+pDdVp1akbV9My65696EZkqRXl80q1sP6y56Nys3PU0RobT0x/O+2C3NFhkZo+rgXdVWH3qXenrWvtWvzS0sEslVx/+BcdKwCAAAAAADAad765n2N7HOr2l3SWl888ZEyz55WgH+AggOCdPTUMR05dUz1a0cXW7maefa07pg+XkunfqD7rhmjO/oM157De9Ugor4aRNSTpcCiR957Qpv2b7WdcyYnS7dNG6tlj3+o7i26aNvr67Tz4J8qKChQm4atFBQQqM37t2nJL19UeO45ebka+dq9+uKJj3Rt1wFKnLVROw/uVo2gGmrTsKUkadH6ZXplyevFzjuRmaaZy2frsWEPasotk/TAdeOUkZWp+rWj5W/21/5jScWCUavlm77VcyOnqkerbvrrnW3Ky89T8we6yVJgqZL7B+dixSoAAAAAAACcJuNspgY8c5P++/W7OnjikEICg5WWeVKzV85X78ev1bqdP0uSrmzXs9h5GxI3qUfcQL29Yq5OZKapU5MO8jebteSXL9X/6Rs1Z9WCEre1PXmXesQN1LSlM/Tnob1qWb+5mkY31vbknZq68Dn1e3pYsZWlFfHnob26fMogTVs6QwdS/1K7Rm1Up1aEftixXmNmPKgxMx5UniW/xHlPJfxLUxY8q92HEhUcEKywkFpau/Nn3fLKKH24dnGpt7UjeZfue/NRJR7ZrwBzgE6cLn5BrKq4f3Aek2Q2XD0JAADg2cyxhVdGtUzjlzoAAFA5wcOjZQowuXoaAFAuI89gxSoAAAAAAAAA2ItgFQAAAAAAAADsRLAKAAAAAAAAAHYiWAUAAAAAAAAAOxGsAgAAAAAAAICdCFYBAAAAAAAAwE4EqwAAAAAAAABgJ5NkNlw9CQAA4JnMsWGF/4wLt23LjUp21XQAAIAXCB4eLVOAydXTAIByGXmG/F09CQAA4JnMsWHFAlWrwNTGkghYAQAAAHg3qgAAAIDdygpVAQAAAMBXEKwCAIAqYV25CgAAAADeiGAVAADYjdWqAAAAAHwdwSoAAAAAAAAA2IlgFQAAVAlLfLqrpwAAAAAAVYZgFQAA2C03KtnVUwAAAAAAlyJYBQAATmeJT5dlWoarpwEAAAAAVcbf1RMAAACeybpqNTC1sW2b9ev/hKoAAAAAvB3BKgAAqBRqAQAAAAD4IqoAAAAAAAAAAMBOBKsAAAAAAAAAYCeCVQAAAAAAAACwE8EqAAAAAAAAANiJYBUAAAAAALgPw9UTAIAKMCR/V88BAAAAAADAyhRkUmDfOjKF+BGyAnA/Jsk4W6DctScIVgEAAAAAgBsJ9FPehlMysgskg2QVgJsxmWQK9pMC/QhWAQAAAACA+zDOWKQAP0JVAO7JMGRkF8jIK6BjFQAAAAAAuBFDhKoA3JthSAYXrwIAAAAAAAAAuxGsAgAAAAAAAICdCFYBAAAAAAAAwE4EqwAAAAAAAABgJ4JVAAAAAAAAALATwSoAAAAAAAAA2IlgFQAAAAAAAADsRLAKAAAAAAAAAHYiWAUAAAAAAAAAOxGsAgAAAAAAAICdCFYBAAAAAAAAwE4EqwAAAAAAAABgJ4JVAAAAAAAAALATwSoAAAAAAAAA2IlgFQAAAAAAAADsRLAKAAAAAAAAAHYiWAUAAAAAAAAAO3lOsGpy9QQAAAAAAAAAoJDnBKs3GNJHBVIHw9UzAQAAAACgat1qSDssUr5FMor8eaug9ONfLih+nMUi/WmRRvMeGgCqiucEq2ZJIwxpWwEBKwAAAADAe3UypI8LpPaS0iQlFflzooxzTpqKH3dMUmtJcwukK3j/DABVwXOCVSs/EbACAAAAALzXdZL8Jc0ySdFmqVmRP0+W8Tb+FVPx4xqYpWf8Cmv1hvG+GQCqgucFq1YErAAAAAAAb1T33PvbHyt5sZG15/4ZVblhAACl89xg1YqAFQAAAADgjSr79pa3x/ARHRq3U1ZCirISUlw9FbdxscfEz+SnewberZ/+9bWOvLdLf729Vdd06V/Ns/R8/q6egNNYA9bbDel/Jul5k7Sjkp/uAQAAAAAAuLHggCClzd9XYrthGDqdfUb7jyXpu21r9eY37yn5OMGjJPmb/ZWxMEmSZCmwqM3EHjp88uhFz2vbsJU2vfq9JCknL1cRo5tX6Tyr0ozxL2vcgLskSRlnM5WbnydLQb6LZ+V5PH/F6oVYwQoAAAAAAHzQobQj2nc0SfuOJulA6l8K8A9Q56Yd9cgN92vjtNWsSCyF2c+ssf3vqNCx9wy8u4pnUz0aRNTT2P53SpIeX/i8GtzbXq0eitF329Ze5ExcyPuCVSsCVgAAAACAJ3rWT4owS4sr+S3MdabCcR723rf+KG70fx5Qp0euUKdHrlDHyVeozpiWuvqpG/T7vi0KDa6pBZPeVJ1aka6eptsZ2/9O+ZnK/zkJDgjS3VfdXk0zqlodGrWVyWRSRlam3vjybRkGmZmjvP/VlYAVAAAAAOBJsiWdkpRXyXHyz41zttIzgocyDEMbEjfp1vgxyjibqbAatXRrrxtcPS23cvjkUTWue4kGdy1/Ne8tPW9QRGhtpaQdrqaZVZ3AgEBJ0qmsdBfPxPN5f7BqdWHA2t7VEwIAAAAAAKh6x9JT9fu+rZIKe0IvVCskVHE3T9LGad/pxLy9Ojj7Dy2Onacr2/W0HfPQkPHKSkjRd88tLfU2OjftqKyEFJ2Yt1ehwTXtHv9C3Vt00XsPzVDirI1KX5ikg7P/0Kdx88s9xxEJ6xZLksYPGlXucfcOKqwB+OCH/5XY98qoZ5WVkKK1L3xZ+rkD71ZWQor+nLlBJtP5leg3XX69vn5qkY68u0vpC5O04431mj7uRTWIqFfqOI48jkUN6T5IWQkpWhw7T5LUpG4j2wWupo97sUJjoDjfCVatrJ/YnXH1RAAAAAAAAKpHoH+AJCkrp/gS5kZ1GmrN88v07Igpal6vmQ4cS5JJJg3pPkjfPL1Io/uNkCQtWr9MlgKLeraOUf3a0SXGv7HHEEnSV7+v1OnsM3aPX9RDQ8Zr7QtfamSfWyVJm/dvk6XAouu6DdQ3Ty/S7Vfc5JwHRdJH6z5VviVf13YdoEsiG5R6TPtGbXRF28t1OvuMPvv1q1LHkKSYll3VpG6jEvuHXXatpMLH0Pq1+5fufloJj87WVR1661RWuhIP71XDyAaaMHisfn1lldo3alNsDEcexwsdOXlMn/36pdbv3iCp8Lnw2a9f6rNfv9SWA39c9HyU5DvBaq6kt01Sa7N0v5/0l6snBAAAAAAAUPXaN2qrmBZdJUm/7d1s2+5n8tO8h/+r9o3aKmHdYjWb0EUxsQPU6L5OevT9J+Vn8tPr97ykJnUb6eipY1qz/UeZTCZbiFrUTZcXbvv4xyUOjW/VoXE7vTLqGRUYBRr/38lqPfEyXf3UDWr5YIze+PJt+Zn8NH3ci7aguLJOnUnXFxu/KbyI1YA7Sz3m3nMXrfr4x0+Vm1+yo2PT/q3afShRknRLz6HF9oUG19TVHftIkv73U+Fq3+4tumjy0AnKzc/TTS/frXYP91RM7AB1nNxbG/duVp1akXrjnpdsYzjyOJZm0/6tunP6ffr3spmSpOOZJ3Tn9Pt05/T7NHd1QkUeLlzA+4NVAlUAAAAAgCcJk9RIUkglxwk6N05EpWcED2QymdQwsr7uvup2LXv8AwUFBGrz/m364rdvbMcMjRms3m17aHvyLt3/1mPKOJspqbCb9e0Vc7X4588VHBCkUedWQ35yLjS96fLri91W8+im6ti4ndKzMrRi83cOjy9JkaG19f53H+j5T6bpw7WLbCs88y35eirhXzqbm63I0Ah1bX6pUx6n4IAgzVm1QJI0tv8dMvuZi+0PCQzWXecuWjV75QIF+QeWOs7H51at3tKzeIftNV36KSggUIlH9mvT/sI6hh6tukkqDDpXblltOzYl7bAem/tP5eTlKqZlVwWd60J15HFE9fDeYJVAFQAAAADgiZ4okJIt0k2VvPhyb6NwnGkFzpkX3N6qZ5fYOjPPfHhQibM26p0HXtclkQ30465fNOylO1VgnH8+DO89TFLhKtM8S36J8b7d+r0kqWfrGEnS0l+XKzsvR33b91Jk6PnE/sYe10mSlvzyZbEVnfaOL0nrdv6sh+dM1bSlM0ocn2/JV2rGcUkqdvuVERQQpNV/rFPikf26JLKBrus2sNj+4b2GKbxGmDYkbtLWpO22sPNCH50LnXu06qZGdRratg+NGSypsAbA6lDaEUlSh0ZtSwTEGxI3KWJ0c9UZ01I5ebmFc3DgcUT18Hf1BJwuV9L7JulfhKkAAAAAAMB3JB9P0dncbNt/N6rTUDWCQv5/e3cfXEV1xnH8t3sTQpQEUBLxBUEpCL5UJQjYQgUbZCBQUECjFsGKUq3Wt7EorbWCOmPR0VpaqlBaGUQEAUFoUFFRkAiKUhEiVBQMTTHRoAmCkNzd/nFzbs7d3GhuQsDE72cmk+Tu2WfPObvPvZlnNmf1xEtP6pZZk2q0735iZB3Pybl3aXLuXbXGPa51hiSpbH+58t5ZqYt752hoz4s0e9UzkqRhVYXVBWufa1B826BzLtTYAbnKOvUcZbbOqFHQtB8C1RAtW7SU7/ua9fIcPXDl3RqfPUbLN7wY3X5N1UOtZq6cHWmfnBI3zo7iT/TmtrfVp2tPjeiVo2l5MxRyQxp8brak6mUAJCnv3ZVaXZCvft3P1xv352n9h+9o5Xuv6dVNq7XuPxsU9sIxsRsyj2hczaewSkEVAAAAAAB8j1097Uat3bo++vv1g36hh8dN0fDzBmvSU1NqPLiqXfqxkqStRR+qbF95rXF3lhRGf563ZpEu7p2jEb1yNHvVM8pIb6c+XXtq9xfFem3z2gbHl6TpEx7W2P658n1f+dve0ivvr1Zp+R55vqdrB16l9NS0b5mJujNrtc5e9YzuuXSiBp7dXx3anajCz/6rMzp0U+8uWfriqy+jd5wmhWpf23XemkXq07WnLukzVNPyZujH3Xqpbas22lL4gQp2bY22qwxXauj9uZpw0dUanz1GvbtkqXeXLP125G0qKt2tR5ZN1/QVs6J3F9d3HtH4mn5hlYIqAAAAAKA5augNec138T/U0axX5ujWYdfrpGNP0E1DrtWDix+L2W7ubn30+el6ctW8OsV8YePL+nJfmQac2U9pqa2Uk3WRXMfVwvylMcsM1Df+JX2Gamz/XJWUfaYh912mzYUfxGwf/aPhh7Sw6lQlWunePVq8bply+16iqy+8UpPn/1Hjq+5Wfer1BdGxfNOdss/mL9XUsZPVu0uWTjimvXKyBkmS5lt3qxoV4UpNy5uhaXkz1DGjgwac2Vc5WRdpSI+BmnrVvepy/KnRu4zrM484PJru2yxrqAIAAAAAmqOSqsJN3wausdq36ntxw8Kg6TpQcVAPLHxEknTrsBtqrEv60ac7JCmhB0EdrKzQ4nXLlJLcQoPPzdbwXoMlRdb/DKpPfLMm6dzVC2sUVRubeYjV2P65Sk9N0+V9R8a8/m1K9+7Ryn+vkuM4GtErslyCFLsMgCSd3O4kdW7fSUelRJ5Qt7OkUP989WmNfuhqXfnoBEnS+OwxatuqjaT6zSMOj6ZXWKWgCgAAAABozlZIqpR0gy99GpZ2WF/31/Igqol+bLv/haV7PcmX9PyhWYsSTdOc1+dr++4dSk9N08SLb47ZlvfOSknSmAsu0wnHtI+7f8/O59R4zRRRf37BaPU/o68++nSn3t6+sUa7+sRPa9lKkpQcqvlP1p3bd1JmI64junbrem0p/EDHtz1OM2/4k9KPStPqgnxtLfqwzjEIkFxcAAAHXUlEQVSeXrNQknRzzgSdktlRG7Zv1MfFO2PazL31CW165A1dm31Vjf1XvLtSvu/LdVxlVC0BUN/zhMbXdAqrB0RBFQAAAADQ/G12pFxXKpB0rKSO1textezT1o9tlynpQ0njXCmfwur3WWW4UvcvfFiSdN3AserQ7sTottmr5mlnSaGOSknV/Ntn6ZTMjtFtbY5urekTHtbr9y3XuAFXxMRcveVNFZXuVvYP+ysluYXmBx5a1ZD4pkA7dsDluvCsfpIk13E1pMdArbj72ejDo2p7iFRDzXx5jiRpaM/Iv/HX9W5VY/mGF1W+f290nhfk11wGwKzXOvHim/Xjbr2jryeHknTHiF/LcRyV7t2jHcWR4ld9zxMaX9NZYzXPiXwBAAAAANDcLXSkhaG6t7/Tle5svO6gaZv/xnO6Y/iN6n7Sabp79B26bvotkqSvDuzTqKnjtPSuuepx6tna9OgaFezaJs/z1PWEHygluYU2frxJi9cti4nn+Z4W5C/RzTmRf1tfUEthtT7x//bCP5Tb9xJ1O7GLlk2ap/L9e5WclKyWySn69Iti7f6iWO3bZDbanatzVz+rKZdP0tEpR6mk7DMtWf+vhPbff/BrLX1rha78ySj5vh8totr+kjdT/bqfr8E9svXSPYu0s6RQpXv3qFPGyWrbqo0qw5W6aeZEHayskFT/84TG13TuWAUAAAAAAEDCPN/T5AUPSZKu6DdS3U86Lbptc+EHOu83P9XUJX/WtqLt6tz+FHXM7KDNhQW6c8696v/7YfpyX1mNmPPWLJIkbdq5RQW7ttV67ETjl+0v14X3DNdfV/xduz4vUmqLliot36MZL83W+XcN0pqCNyUp5k7PQ6lsX3l0TdTZq56JFjcT8fzbKyRFlhYoKt1dY3tFuFKjHhqnXz5+m17fkq/01DSddfLp+rrigBasXaJ+v8vR4nXLY/ap73lC43KkUANXwwYAAAAAADg0Wo7MlJPMf6yi6Zpy+STd/rNf6ZZZk/TES08e6e6gkfgVPnesAgAAAAAAAIdCSnILjbngUlWGK7WIf81v9iisAgAAAAAAAA2Unpqmx655UJmtM/T0mkX6rOzzI90lNLKm8/AqAAAAAAAA4Dsm5Ib0yePvqfXR6XIdV8VflmjKgqlHuls4DLhjFQAAAAAAAGiAinCFvvp6n17c+IoGTR6lXZ8XHeku4TDg4VUAAAAAAOA7g4dXAWgKeHgVAAAAAAAAANQDhVUAAAAAAAAASBCFVQAAAAAAAABIEIVVAAAAAAAAAEgQhVUAAAAAAAAASBCFVQAAAAAAAABIEIVVAAAAAAAAAEgQhVUAAAAAAAAASBCFVQAAAAAAAABIEIVVAAAAAAAAAEgQhVUAAAAAAAAASBCFVQAAAAAAAABIEIVVAAAAAAAAAEgQhVUAAAAAAAAASBCFVQAAAAAAAABIEIVVAAAAAAAAAEiQ07JThh8KheR5nnzfl+M48n0/stFxYn43zO+u68Zta+LYbQ3XdeV5XnS74zjyPK9Gx+wY5rvneQqFQtGfg/s6jiPXdRUOh6PbXNeNaWf6bLYFj2cfy/wcb7sZhz1GM/7gnLmuq8rKypjj2W2D8YPHtvtj9jNzYY8tuN2e62Df7P4H97PHaeKbfYL9MzHNa6adGb89rmA7+9zGm3MTx3Gc6Dk18c15Nu3C4bDMdRx8LXg92ddM8DqLN/f2tuB8hUKhGvNmj9Gea7t/wfHb+wZfN/va4zWx4/WztrHFO792v8h/8j94fVSMPr1qLKavJo6ZF8lxzBw40XbVw4+8Hmlfva/Zbg+zOkb1HJn9fd+LiR8Ztz3vnhzHDZwLTykLt8bMr5nL4Hk1+5D/5L8dv7bt35f8N/H5/Cf/7bh2P4JtyX/yn/w/RPnv1j3/fdUx/91vyX9ZfbOvZac6brQfqv5Dzuwb+Vus6vqo2m566oYC+V81vuhIrGM4rhONLUmeH8h/N07+h1yFw57c2vI/FC//q64rc907dcn/wLl0AjndWPnvVp3HsKdQEvlv2jXb/Hf4/A/21fwc3Ndxvjuf/6Hktq3+YE+e6Yj52d7BMB/owTbmQPbJMtuDCRg8SXZC2hdZUlJSzLHtC8r0NThYM8F2TDvBkpKSYk5GMEbwjSX4u33xmO/BuQqOPd782vNittsnK3iS7ePF+920dV03Zv6DfbcvqGCyxxuP/T14wcd7E7Lbm/jBdna/7KQOxrXfDEy84Gv2m2286yk4x/bY7GQMhUI1PvxqywHHcaJvdvbrJqnj5UdwXuxzYZ9L+xgml4JvxPYbirm27X1M3OAbT/C6CY6N/Cf/7fF4Z2TIcez8t4uhdv7b+e1E2ziOq+qirNUikON2jMjxzPxIprhq4vl+/CJsZHyBY7xfTP4H5oj8J//tc8nnP/lP/pP/5P93MP/Ddc9/U1j9xvx365D/bnXffdU3/5PkeeGa+e8H8l/fkv/JVv47dc//UG357wXzPxLDTTj/vZh5jJf/ocbKf5f8/97kP5//TfLz///HArVhhvfi3gAAAABJRU5ErkJggg==;" vertex="1" parent="1">
                    <mxGeometry x="743" y="120" width="1366" height="768" as="geometry"/>
                </mxCell>
                <mxCell id="4" value="&lt;font face=&quot;Consolas&quot; style=&quot;font-size: 60px;&quot;&gt;User&lt;/font&gt;" style="shape=umlActor;verticalLabelPosition=bottom;verticalAlign=top;html=1;outlineConnect=0;" vertex="1" parent="1">
                    <mxGeometry x="49" y="264" width="240" height="480" as="geometry"/>
                </mxCell>
                <mxCell id="6" value="&lt;font face=&quot;Consolas&quot; color=&quot;#00ff00&quot; style=&quot;font-size: 97px;&quot;&gt;GUI&lt;/font&gt;" style="text;html=1;strokeColor=none;fillColor=none;align=center;verticalAlign=middle;whiteSpace=wrap;rounded=0;fontSize=97;" vertex="1" parent="1">
                    <mxGeometry x="443" y="406" width="230" height="150" as="geometry"/>
                </mxCell>
                <mxCell id="7" value="" style="endArrow=classic;startArrow=classic;html=1;fontFamily=Consolas;fontSize=97;fontColor=#00FF00;strokeWidth=11;entryX=0;entryY=0.5;entryDx=0;entryDy=0;entryPerimeter=0;" edge="1" parent="1" source="4" target="12">
                    <mxGeometry width="50" height="50" relative="1" as="geometry">
                        <mxPoint x="413" y="946" as="sourcePoint"/>
                        <mxPoint x="453" y="508.79452054794524" as="targetPoint"/>
                    </mxGeometry>
                </mxCell>
                <mxCell id="8" value="&lt;font color=&quot;#fcd116&quot; style=&quot;font-size: 50px;&quot;&gt;Network Card&lt;/font&gt;" style="sketch=0;aspect=fixed;html=1;points=[];align=center;image;fontSize=12;image=img/lib/mscae/NetworkInterfaceCard.svg;fontFamily=Consolas;fontColor=#00FF00;labelBackgroundColor=none;" vertex="1" parent="1">
                    <mxGeometry x="2280" y="394" width="193.6" height="220" as="geometry"/>
                </mxCell>
                <mxCell id="9" value="" style="endArrow=classic;html=1;fontFamily=Consolas;fontSize=50;fontColor=#00FF00;entryX=0;entryY=0.288;entryDx=0;entryDy=0;entryPerimeter=0;exitX=1;exitY=0.25;exitDx=0;exitDy=0;strokeWidth=11;" edge="1" parent="1" source="3" target="8">
                    <mxGeometry width="50" height="50" relative="1" as="geometry">
                        <mxPoint x="2290" y="840" as="sourcePoint"/>
                        <mxPoint x="2340" y="790" as="targetPoint"/>
                    </mxGeometry>
                </mxCell>
                <mxCell id="10" value="" style="endArrow=classic;html=1;fontFamily=Consolas;fontSize=50;fontColor=#00FF00;entryX=1;entryY=0.75;entryDx=0;entryDy=0;exitX=0;exitY=0.778;exitDx=0;exitDy=0;strokeWidth=11;exitPerimeter=0;" edge="1" parent="1" source="8" target="3">
                    <mxGeometry width="50" height="50" relative="1" as="geometry">
                        <mxPoint x="2287.4832" y="440.91999999999985" as="sourcePoint"/>
                        <mxPoint x="2119" y="322" as="targetPoint"/>
                    </mxGeometry>
                </mxCell>
                <mxCell id="11" value="" style="endArrow=classic;html=1;fontFamily=Consolas;fontSize=50;fontColor=#00FF00;exitX=0.25;exitY=1;exitDx=0;exitDy=0;strokeWidth=11;entryX=0.18;entryY=0.18;entryDx=0;entryDy=0;entryPerimeter=0;" edge="1" parent="1" source="3" target="13">
                    <mxGeometry width="50" height="50" relative="1" as="geometry">
                        <mxPoint x="1190" y="1000" as="sourcePoint"/>
                        <mxPoint x="1090" y="1000" as="targetPoint"/>
                    </mxGeometry>
                </mxCell>
                <mxCell id="13" value="&lt;font color=&quot;#007fff&quot;&gt;Operating System&lt;/font&gt;" style="points=[];aspect=fixed;html=1;align=center;shadow=0;dashed=0;image;image=img/lib/allied_telesis/computer_and_terminals/Personal_Computer_with_Server.svg;labelBackgroundColor=none;fontFamily=Consolas;fontSize=50;fontColor=#00FF00;" vertex="1" parent="1">
                    <mxGeometry x="1060" y="970" width="222.4" height="222.4" as="geometry"/>
                </mxCell>
                <mxCell id="14" value="" style="endArrow=classic;html=1;strokeWidth=11;fontFamily=Consolas;fontSize=50;fontColor=#fcd116;exitX=0.003;exitY=0.579;exitDx=0;exitDy=0;exitPerimeter=0;entryX=1;entryY=0.5;entryDx=0;entryDy=0;" edge="1" parent="1" source="13" target="15">
                    <mxGeometry width="50" height="50" relative="1" as="geometry">
                        <mxPoint x="1080" y="1390" as="sourcePoint"/>
                        <mxPoint x="920" y="1130" as="targetPoint"/>
                    </mxGeometry>
                </mxCell>
                <mxCell id="15" value="&lt;font color=&quot;#ffffff&quot;&gt;Threads&lt;/font&gt;" style="rounded=1;whiteSpace=wrap;html=1;labelBackgroundColor=none;fontFamily=Consolas;fontSize=50;fontColor=#fcd116;fillColor=#007fff;" vertex="1" parent="1">
                    <mxGeometry x="650" y="1130" width="240" height="80" as="geometry"/>
                </mxCell>
                <mxCell id="19" style="edgeStyle=none;html=1;exitX=0;exitY=0.75;exitDx=0;exitDy=0;entryX=1;entryY=0.5;entryDx=0;entryDy=0;strokeWidth=5;fontFamily=Consolas;fontSize=50;fontColor=#FFFFFF;" edge="1" parent="1" source="16" target="18">
                    <mxGeometry relative="1" as="geometry"/>
                </mxCell>
                <mxCell id="16" value="&lt;font color=&quot;#ffffff&quot;&gt;File System&lt;/font&gt;" style="rounded=1;whiteSpace=wrap;html=1;labelBackgroundColor=none;fontFamily=Consolas;fontSize=50;fontColor=#fcd116;fillColor=#007fff;" vertex="1" parent="1">
                    <mxGeometry x="570" y="1020" width="350" height="80" as="geometry"/>
                </mxCell>
                <mxCell id="17" value="" style="endArrow=classic;html=1;strokeWidth=11;fontFamily=Consolas;fontSize=50;fontColor=#fcd116;exitX=0.002;exitY=0.477;exitDx=0;exitDy=0;exitPerimeter=0;entryX=1;entryY=0.5;entryDx=0;entryDy=0;" edge="1" parent="1" source="13" target="16">
                    <mxGeometry width="50" height="50" relative="1" as="geometry">
                        <mxPoint x="1067.1088" y="1105.8784" as="sourcePoint"/>
                        <mxPoint x="880" y="1160" as="targetPoint"/>
                    </mxGeometry>
                </mxCell>
                <mxCell id="18" value="SQL&lt;br&gt;Database" style="shape=datastore;whiteSpace=wrap;html=1;labelBackgroundColor=none;fontFamily=Consolas;fontSize=50;fillColor=#6a00ff;strokeColor=#3700CC;fontColor=#ffffff;" vertex="1" parent="1">
                    <mxGeometry x="190" y="1020" width="290" height="330" as="geometry"/>
                </mxCell>
            </root>
        </mxGraphModel>
    </diagram>
</mxfile>
